<svg width="15" height="15" viewBox="0 0 15 15" fill="none" xmlns="http://www.w3.org/2000/svg">
<path fill-rule="evenodd" clip-rule="evenodd" d="M2.31791 2.09682C-0.415699 4.83043 -0.415699 9.26271 2.31791 11.9963C5.05152 14.7299 9.48379 14.7299 12.2174 11.9963C14.951 9.26271 14.951 4.83043 12.2174 2.09682C9.48379 -0.636788 5.05152 -0.636788 2.31791 2.09682ZM7.90392 4.34671C7.90103 4.17987 7.83272 4.02085 7.71371 3.9039C7.5947 3.78694 7.43452 3.7214 7.26766 3.7214C7.1008 3.7214 6.94062 3.78694 6.82161 3.9039C6.7026 4.02085 6.63429 4.17987 6.63139 4.34671L6.63139 6.4103H4.5678C4.48331 6.40883 4.39938 6.42421 4.32089 6.45552C4.24241 6.48684 4.17095 6.53347 4.11069 6.5927C4.05042 6.65193 4.00255 6.72257 3.96988 6.80049C3.9372 6.87842 3.92037 6.96207 3.92037 7.04657C3.92037 7.13107 3.9372 7.21472 3.96988 7.29265C4.00255 7.37057 4.05042 7.44121 4.11069 7.50044C4.17095 7.55967 4.24241 7.6063 4.32089 7.63762C4.39938 7.66893 4.48331 7.68431 4.5678 7.68284H6.63139L6.63139 9.74643C6.62992 9.83092 6.64529 9.91485 6.67661 9.99333C6.70793 10.0718 6.75456 10.1433 6.81379 10.2035C6.87302 10.2638 6.94365 10.3117 7.02158 10.3444C7.09951 10.377 7.18316 10.3939 7.26766 10.3939C7.35216 10.3939 7.43581 10.377 7.51374 10.3444C7.59166 10.3117 7.6623 10.2638 7.72153 10.2035C7.78076 10.1433 7.82739 10.0718 7.85871 9.99333C7.89002 9.91485 7.90539 9.83092 7.90392 9.74643L7.90392 7.68284L9.96752 7.68284C10.1344 7.67994 10.2934 7.61163 10.4103 7.49262C10.5273 7.37361 10.5928 7.21343 10.5928 7.04657C10.5928 6.87971 10.5273 6.71953 10.4103 6.60052C10.2934 6.48151 10.1344 6.4132 9.96752 6.4103L7.90392 6.4103L7.90392 4.34671Z" fill="#41E06E" fill-opacity="0.8"/>
</svg>
