<svg width="33" height="32" viewBox="0 0 33 32" fill="none" xmlns="http://www.w3.org/2000/svg">
<path d="M16.7354 0.0156403C13.5739 0.0156403 10.4835 0.953107 7.85492 2.70949C5.2263 4.46588 3.17754 6.9623 1.96772 9.88306C0.757902 12.8038 0.441359 16.0177 1.05812 19.1184C1.67488 22.2191 3.19724 25.0672 5.4327 27.3027C7.66815 29.5381 10.5163 31.0605 13.617 31.6773C16.7176 32.294 19.9316 31.9775 22.8523 30.7677C25.7731 29.5578 28.2695 27.5091 30.0259 24.8805C31.7823 22.2518 32.7197 19.1614 32.7197 16C32.7114 11.7632 31.0247 7.70236 28.0289 4.7065C25.033 1.71065 20.9721 0.0239233 16.7354 0.0156403ZM16.7354 30.1039C13.9459 30.1039 11.219 29.2767 8.89967 27.7269C6.58031 26.1772 4.77258 23.9745 3.70509 21.3973C2.6376 18.8202 2.3583 15.9844 2.9025 13.2485C3.4467 10.5126 4.78996 7.99954 6.76242 6.02708C8.73488 4.05462 11.248 2.71136 13.9838 2.16716C16.7197 1.62296 19.5555 1.90226 22.1327 2.96975C24.7098 4.03723 26.9125 5.84496 28.4623 8.16433C30.012 10.4837 30.8392 13.2105 30.8392 16C30.8351 19.7393 29.3478 23.3243 26.7037 25.9684C24.0596 28.6125 20.4747 30.0997 16.7354 30.1039ZM22.7217 16.2821C22.8949 16.4605 22.9919 16.6994 22.9919 16.9481C22.9919 17.1968 22.8949 17.4357 22.7217 17.6141L17.3935 22.9266C17.3086 23.0157 17.2065 23.0867 17.0934 23.1352C16.9803 23.1837 16.8584 23.2087 16.7354 23.2087C16.6123 23.2087 16.4905 23.1837 16.3773 23.1352C16.2642 23.0867 16.1621 23.0157 16.0772 22.9266L10.7491 17.6141C10.5724 17.4375 10.4732 17.1979 10.4732 16.9481C10.4732 16.6983 10.5724 16.4587 10.7491 16.2821C10.9257 16.1055 11.1653 16.0062 11.4151 16.0062C11.6649 16.0062 11.9044 16.1055 12.0811 16.2821L15.7951 19.9961V9.73163C15.7951 9.48226 15.8942 9.2431 16.0705 9.06677C16.2468 8.89044 16.486 8.79138 16.7354 8.79138C16.9847 8.79138 17.2239 8.89044 17.4002 9.06677C17.5766 9.2431 17.6756 9.48226 17.6756 9.73163V19.9961L21.3896 16.2821C21.568 16.1088 21.8069 16.0119 22.0556 16.0119C22.3043 16.0119 22.5433 16.1088 22.7217 16.2821Z" fill="#ECECEC"/>
</svg>
