<svg width="563" height="1417" viewBox="0 0 563 1417" fill="none" xmlns="http://www.w3.org/2000/svg">
<g opacity="0.2">
<g filter="url(#filter0_d_1062_1395)">
<path fill-rule="evenodd" clip-rule="evenodd" d="M125.278 1204.26C78.9503 1246.93 16.3793 1265.11 -33.9454 1302.99C-96.5254 1350.09 -132.662 1440.79 -209.456 1456.2C-282.802 1470.91 -350.493 1411.16 -418.568 1380.15C-482.452 1351.04 -546.082 1322.1 -600.668 1277.96C-655.553 1233.57 -696.175 1176.19 -739.59 1120.53C-787.683 1058.88 -859.459 1006.71 -872.404 929.599C-885.299 852.786 -850.171 772.903 -809.051 706.754C-770.207 644.268 -699.906 610.882 -644.315 562.684C-598.844 523.26 -542.583 495.696 -508.447 446.131C-455.282 368.936 -476.497 230.172 -390.168 193.664C-312.358 160.758 -236.748 259.689 -162.385 299.781C-103.851 331.34 -53.9021 374.1 4.26905 406.322C62.5629 438.612 125.309 458.55 183.35 491.292C257.76 533.268 388.344 543.19 397.476 628.134C407.969 725.727 257.662 770.484 223.251 862.409C200.871 922.192 256.528 990.269 238.942 1051.63C221.316 1113.14 172.336 1160.92 125.278 1204.26Z" fill="#C4C4C4"/>
</g>
<g filter="url(#filter1_ddd_1062_1395)">
<path fill-rule="evenodd" clip-rule="evenodd" d="M102.923 1180.21C59.4261 1220.27 0.666455 1237.33 -46.5855 1272.89C-105.345 1317.1 -139.255 1402.27 -211.374 1416.72C-280.254 1430.51 -343.846 1374.38 -407.791 1345.23C-467.798 1317.87 -527.568 1290.68 -578.847 1249.2C-630.408 1207.5 -668.577 1153.59 -709.37 1101.3C-754.557 1043.38 -821.984 994.369 -834.166 921.941C-846.3 849.795 -813.334 774.782 -774.735 712.67C-738.274 653.996 -672.259 622.662 -620.065 577.414C-577.371 540.402 -524.541 514.532 -492.497 467.992C-442.59 395.509 -462.558 265.178 -381.491 230.917C-308.423 200.037 -237.381 292.976 -167.529 330.653C-112.545 360.31 -65.6205 400.485 -10.9773 430.766C43.7812 461.111 102.717 479.856 157.238 510.624C227.136 550.07 349.78 559.43 358.384 639.211C368.27 730.871 227.119 772.859 194.829 859.182C173.83 915.322 226.123 979.275 209.625 1036.9C193.09 1094.66 147.105 1139.52 102.923 1180.21Z" fill="url(#paint0_linear_1062_1395)" shape-rendering="crispEdges"/>
</g>
<g filter="url(#filter2_ddd_1062_1395)">
<path fill-rule="evenodd" clip-rule="evenodd" d="M89.3905 1165.39C47.608 1203.87 -8.83711 1220.25 -54.2272 1254.41C-110.671 1296.88 -143.243 1378.7 -212.522 1392.57C-278.689 1405.82 -339.779 1351.89 -401.206 1323.89C-458.85 1297.61 -516.267 1271.48 -565.528 1231.64C-615.059 1191.58 -651.727 1139.79 -690.914 1089.56C-734.323 1033.92 -799.096 986.837 -810.8 917.261C-822.458 847.956 -790.793 775.898 -753.716 716.233C-718.692 659.871 -655.278 629.773 -605.14 586.308C-564.128 550.755 -513.38 525.905 -482.599 481.199C-434.659 411.572 -453.844 286.373 -375.971 253.464C-305.782 223.802 -237.535 313.082 -170.433 349.277C-117.613 377.768 -72.5357 416.362 -20.0437 445.452C32.5591 474.603 89.1742 492.611 141.549 522.169C208.696 560.064 326.51 569.059 334.777 645.697C344.276 733.748 208.685 774.078 177.669 857.001C157.498 910.929 207.734 972.366 191.887 1027.72C176.005 1083.2 131.832 1126.29 89.3905 1165.39Z" fill="#E0DFE0"/>
</g>
</g>
<defs>
<filter id="filter0_d_1062_1395" x="-907.113" y="183.071" width="1337.11" height="1335.42" filterUnits="userSpaceOnUse" color-interpolation-filters="sRGB">
<feFlood flood-opacity="0" result="BackgroundImageFix"/>
<feColorMatrix in="SourceAlpha" type="matrix" values="0 0 0 0 0 0 0 0 0 0 0 0 0 0 0 0 0 0 127 0" result="hardAlpha"/>
<feOffset dy="28"/>
<feGaussianBlur stdDeviation="16"/>
<feComposite in2="hardAlpha" operator="out"/>
<feColorMatrix type="matrix" values="0 0 0 0 0 0 0 0 0 0 0 0 0 0 0 0 0 0 0.25 0"/>
<feBlend mode="normal" in2="BackgroundImageFix" result="effect1_dropShadow_1062_1395"/>
<feBlend mode="normal" in="SourceGraphic" in2="effect1_dropShadow_1062_1395" result="shape"/>
</filter>
<filter id="filter1_ddd_1062_1395" x="-855.72" y="214.736" width="1233.6" height="1232.13" filterUnits="userSpaceOnUse" color-interpolation-filters="sRGB">
<feFlood flood-opacity="0" result="BackgroundImageFix"/>
<feColorMatrix in="SourceAlpha" type="matrix" values="0 0 0 0 0 0 0 0 0 0 0 0 0 0 0 0 0 0 127 0" result="hardAlpha"/>
<feOffset dy="9"/>
<feGaussianBlur stdDeviation="9.5"/>
<feComposite in2="hardAlpha" operator="out"/>
<feColorMatrix type="matrix" values="0 0 0 0 0 0 0 0 0 0 0 0 0 0 0 0 0 0 0.25 0"/>
<feBlend mode="normal" in2="BackgroundImageFix" result="effect1_dropShadow_1062_1395"/>
<feColorMatrix in="SourceAlpha" type="matrix" values="0 0 0 0 0 0 0 0 0 0 0 0 0 0 0 0 0 0 127 0" result="hardAlpha"/>
<feOffset dy="9"/>
<feGaussianBlur stdDeviation="9.5"/>
<feComposite in2="hardAlpha" operator="out"/>
<feColorMatrix type="matrix" values="0 0 0 0 0 0 0 0 0 0 0 0 0 0 0 0 0 0 0.25 0"/>
<feBlend mode="normal" in2="effect1_dropShadow_1062_1395" result="effect2_dropShadow_1062_1395"/>
<feColorMatrix in="SourceAlpha" type="matrix" values="0 0 0 0 0 0 0 0 0 0 0 0 0 0 0 0 0 0 127 0" result="hardAlpha"/>
<feOffset dy="9"/>
<feGaussianBlur stdDeviation="9.5"/>
<feComposite in2="hardAlpha" operator="out"/>
<feColorMatrix type="matrix" values="0 0 0 0 0 0 0 0 0 0 0 0 0 0 0 0 0 0 0.25 0"/>
<feBlend mode="normal" in2="effect2_dropShadow_1062_1395" result="effect3_dropShadow_1062_1395"/>
<feBlend mode="normal" in="SourceGraphic" in2="effect3_dropShadow_1062_1395" result="shape"/>
</filter>
<filter id="filter2_ddd_1062_1395" x="-832.255" y="237.527" width="1186.51" height="1185.1" filterUnits="userSpaceOnUse" color-interpolation-filters="sRGB">
<feFlood flood-opacity="0" result="BackgroundImageFix"/>
<feColorMatrix in="SourceAlpha" type="matrix" values="0 0 0 0 0 0 0 0 0 0 0 0 0 0 0 0 0 0 127 0" result="hardAlpha"/>
<feOffset dy="9"/>
<feGaussianBlur stdDeviation="9.5"/>
<feComposite in2="hardAlpha" operator="out"/>
<feColorMatrix type="matrix" values="0 0 0 0 0 0 0 0 0 0 0 0 0 0 0 0 0 0 0.25 0"/>
<feBlend mode="normal" in2="BackgroundImageFix" result="effect1_dropShadow_1062_1395"/>
<feColorMatrix in="SourceAlpha" type="matrix" values="0 0 0 0 0 0 0 0 0 0 0 0 0 0 0 0 0 0 127 0" result="hardAlpha"/>
<feOffset dy="9"/>
<feGaussianBlur stdDeviation="9.5"/>
<feComposite in2="hardAlpha" operator="out"/>
<feColorMatrix type="matrix" values="0 0 0 0 0 0 0 0 0 0 0 0 0 0 0 0 0 0 0.25 0"/>
<feBlend mode="normal" in2="effect1_dropShadow_1062_1395" result="effect2_dropShadow_1062_1395"/>
<feColorMatrix in="SourceAlpha" type="matrix" values="0 0 0 0 0 0 0 0 0 0 0 0 0 0 0 0 0 0 127 0" result="hardAlpha"/>
<feOffset dy="9"/>
<feGaussianBlur stdDeviation="9.5"/>
<feComposite in2="hardAlpha" operator="out"/>
<feColorMatrix type="matrix" values="0 0 0 0 0 0 0 0 0 0 0 0 0 0 0 0 0 0 0.25 0"/>
<feBlend mode="normal" in2="effect2_dropShadow_1062_1395" result="effect3_dropShadow_1062_1395"/>
<feBlend mode="normal" in="SourceGraphic" in2="effect3_dropShadow_1062_1395" result="shape"/>
</filter>
<linearGradient id="paint0_linear_1062_1395" x1="430.371" y1="761.04" x2="-642.515" y2="1363.7" gradientUnits="userSpaceOnUse">
<stop stop-color="#166B8C"/>
<stop offset="0.510417" stop-color="#2EEBA7" stop-opacity="0.76"/>
<stop offset="1" stop-color="#FE7C31"/>
</linearGradient>
</defs>
</svg>
