<svg width="510" height="1757" viewBox="0 0 510 1757" fill="none" xmlns="http://www.w3.org/2000/svg">
<g opacity="0.2">
<g filter="url(#filter0_d_1062_1370)">
<path fill-rule="evenodd" clip-rule="evenodd" d="M302.259 1049.57C278.766 1127.26 229.397 1190.23 200.087 1265.61C163.64 1359.34 170.986 1480.99 107.305 1550.93C46.4847 1617.73 -42.4314 1601.4 -118.854 1615.89C-190.571 1629.5 -261.98 1643.1 -331.877 1634.22C-402.158 1625.3 -465.143 1592.6 -529.922 1563.7C-601.682 1531.67 -690.961 1526.25 -737.335 1453.28C-783.528 1380.58 -786.964 1271.14 -778.753 1172.11C-770.997 1078.57 -721.323 994.041 -691.789 904.017C-667.631 830.379 -628.256 761.83 -619.048 685.315C-604.708 566.145 -686.245 433.375 -623.238 334.344C-566.449 245.085 -452.737 297.562 -366.479 288.336C-298.581 281.074 -233.563 291.712 -165.702 285.409C-97.6971 279.093 -31.1245 256.536 36.85 250.876C123.995 243.62 248.427 163.103 294.798 247.066C348.074 343.531 229.965 495.952 239.444 617.707C245.608 696.89 327.19 730.469 338.466 807.991C349.767 885.688 326.121 970.657 302.259 1049.57Z" fill="#C4C4C4"/>
</g>
<g filter="url(#filter1_ddd_1062_1370)">
<path fill-rule="evenodd" clip-rule="evenodd" d="M270.963 1039.59C248.905 1112.52 202.535 1171.64 175.012 1242.41C140.786 1330.41 147.706 1444.63 87.893 1510.29C30.7654 1573 -52.7695 1557.65 -124.562 1571.24C-191.935 1584 -259.018 1596.77 -324.684 1588.42C-390.711 1580.03 -449.888 1549.32 -510.749 1522.17C-578.169 1492.09 -662.043 1486.99 -705.621 1418.46C-749.028 1350.21 -752.274 1247.44 -744.575 1154.47C-737.303 1066.65 -690.651 987.288 -662.919 902.768C-640.235 833.634 -603.255 769.278 -594.617 697.439C-581.164 585.552 -657.784 460.88 -598.608 367.91C-545.272 284.113 -438.437 333.401 -357.402 324.753C-293.617 317.945 -232.534 327.943 -168.783 322.036C-104.897 316.117 -42.3587 294.949 21.4991 289.645C103.366 282.846 220.251 207.267 263.828 286.108C313.893 376.688 202.96 519.779 211.884 634.097C217.687 708.443 294.335 739.984 304.94 812.771C315.569 885.723 293.369 965.498 270.963 1039.59Z" fill="url(#paint0_linear_1062_1370)" shape-rendering="crispEdges"/>
</g>
<g filter="url(#filter2_ddd_1062_1370)">
<path fill-rule="evenodd" clip-rule="evenodd" d="M251.899 1033.26C230.711 1103.32 186.166 1160.11 159.727 1228.08C126.85 1312.61 133.499 1422.34 76.0408 1485.41C21.1625 1545.64 -59.0847 1530.9 -128.052 1543.96C-192.772 1556.22 -257.215 1568.47 -320.296 1560.46C-383.725 1552.4 -440.572 1522.9 -499.039 1496.81C-563.806 1467.92 -644.379 1463.02 -686.242 1397.19C-727.942 1331.62 -731.061 1232.91 -723.667 1143.6C-716.682 1059.24 -671.867 983.006 -645.227 901.818C-623.437 835.408 -587.914 773.589 -579.617 704.58C-566.695 597.103 -640.301 477.343 -583.455 388.036C-532.219 307.543 -429.589 354.89 -351.744 346.583C-290.469 340.045 -231.79 349.65 -170.548 343.976C-109.177 338.291 -49.1004 317.958 12.2439 312.864C90.8886 306.334 203.172 233.735 245.035 309.469C293.131 396.481 186.566 533.932 195.14 643.745C200.716 715.162 274.347 745.46 284.536 815.38C294.747 885.457 273.422 962.088 251.899 1033.26Z" fill="#E0DFE0"/>
</g>
</g>
<defs>
<filter id="filter0_d_1062_1370" x="-814.249" y="205.12" width="1187.62" height="1491.94" filterUnits="userSpaceOnUse" color-interpolation-filters="sRGB">
<feFlood flood-opacity="0" result="BackgroundImageFix"/>
<feColorMatrix in="SourceAlpha" type="matrix" values="0 0 0 0 0 0 0 0 0 0 0 0 0 0 0 0 0 0 127 0" result="hardAlpha"/>
<feOffset dy="28"/>
<feGaussianBlur stdDeviation="16"/>
<feComposite in2="hardAlpha" operator="out"/>
<feColorMatrix type="matrix" values="0 0 0 0 0 0 0 0 0 0 0 0 0 0 0 0 0 0 0.25 0"/>
<feBlend mode="normal" in2="BackgroundImageFix" result="effect1_dropShadow_1062_1370"/>
<feBlend mode="normal" in="SourceGraphic" in2="effect1_dropShadow_1062_1370" result="shape"/>
</filter>
<filter id="filter1_ddd_1062_1370" x="-766.847" y="240.469" width="1093.53" height="1378.62" filterUnits="userSpaceOnUse" color-interpolation-filters="sRGB">
<feFlood flood-opacity="0" result="BackgroundImageFix"/>
<feColorMatrix in="SourceAlpha" type="matrix" values="0 0 0 0 0 0 0 0 0 0 0 0 0 0 0 0 0 0 127 0" result="hardAlpha"/>
<feOffset dy="9"/>
<feGaussianBlur stdDeviation="9.5"/>
<feComposite in2="hardAlpha" operator="out"/>
<feColorMatrix type="matrix" values="0 0 0 0 0 0 0 0 0 0 0 0 0 0 0 0 0 0 0.25 0"/>
<feBlend mode="normal" in2="BackgroundImageFix" result="effect1_dropShadow_1062_1370"/>
<feColorMatrix in="SourceAlpha" type="matrix" values="0 0 0 0 0 0 0 0 0 0 0 0 0 0 0 0 0 0 127 0" result="hardAlpha"/>
<feOffset dy="9"/>
<feGaussianBlur stdDeviation="9.5"/>
<feComposite in2="hardAlpha" operator="out"/>
<feColorMatrix type="matrix" values="0 0 0 0 0 0 0 0 0 0 0 0 0 0 0 0 0 0 0.25 0"/>
<feBlend mode="normal" in2="effect1_dropShadow_1062_1370" result="effect2_dropShadow_1062_1370"/>
<feColorMatrix in="SourceAlpha" type="matrix" values="0 0 0 0 0 0 0 0 0 0 0 0 0 0 0 0 0 0 127 0" result="hardAlpha"/>
<feOffset dy="9"/>
<feGaussianBlur stdDeviation="9.5"/>
<feComposite in2="hardAlpha" operator="out"/>
<feColorMatrix type="matrix" values="0 0 0 0 0 0 0 0 0 0 0 0 0 0 0 0 0 0 0.25 0"/>
<feBlend mode="normal" in2="effect2_dropShadow_1062_1370" result="effect3_dropShadow_1062_1370"/>
<feBlend mode="normal" in="SourceGraphic" in2="effect3_dropShadow_1062_1370" result="shape"/>
</filter>
<filter id="filter2_ddd_1062_1370" x="-745.809" y="265.234" width="1051.98" height="1325.79" filterUnits="userSpaceOnUse" color-interpolation-filters="sRGB">
<feFlood flood-opacity="0" result="BackgroundImageFix"/>
<feColorMatrix in="SourceAlpha" type="matrix" values="0 0 0 0 0 0 0 0 0 0 0 0 0 0 0 0 0 0 127 0" result="hardAlpha"/>
<feOffset dy="9"/>
<feGaussianBlur stdDeviation="9.5"/>
<feComposite in2="hardAlpha" operator="out"/>
<feColorMatrix type="matrix" values="0 0 0 0 0 0 0 0 0 0 0 0 0 0 0 0 0 0 0.25 0"/>
<feBlend mode="normal" in2="BackgroundImageFix" result="effect1_dropShadow_1062_1370"/>
<feColorMatrix in="SourceAlpha" type="matrix" values="0 0 0 0 0 0 0 0 0 0 0 0 0 0 0 0 0 0 127 0" result="hardAlpha"/>
<feOffset dy="9"/>
<feGaussianBlur stdDeviation="9.5"/>
<feComposite in2="hardAlpha" operator="out"/>
<feColorMatrix type="matrix" values="0 0 0 0 0 0 0 0 0 0 0 0 0 0 0 0 0 0 0.25 0"/>
<feBlend mode="normal" in2="effect1_dropShadow_1062_1370" result="effect2_dropShadow_1062_1370"/>
<feColorMatrix in="SourceAlpha" type="matrix" values="0 0 0 0 0 0 0 0 0 0 0 0 0 0 0 0 0 0 127 0" result="hardAlpha"/>
<feOffset dy="9"/>
<feGaussianBlur stdDeviation="9.5"/>
<feComposite in2="hardAlpha" operator="out"/>
<feColorMatrix type="matrix" values="0 0 0 0 0 0 0 0 0 0 0 0 0 0 0 0 0 0 0.25 0"/>
<feBlend mode="normal" in2="effect2_dropShadow_1062_1370" result="effect3_dropShadow_1062_1370"/>
<feBlend mode="normal" in="SourceGraphic" in2="effect3_dropShadow_1062_1370" result="shape"/>
</filter>
<linearGradient id="paint0_linear_1062_1370" x1="384.448" y1="365.462" x2="-501.677" y2="1636.27" gradientUnits="userSpaceOnUse">
<stop stop-color="#166B8C"/>
<stop offset="0.510417" stop-color="#2EEBA7" stop-opacity="0.76"/>
<stop offset="1" stop-color="#FE7C31"/>
</linearGradient>
</defs>
</svg>
