<svg width="405" height="1426" viewBox="0 0 405 1426" fill="none" xmlns="http://www.w3.org/2000/svg">
<g opacity="0.2">
<g filter="url(#filter0_d_1062_1391)">
<path fill-rule="evenodd" clip-rule="evenodd" d="M1208.59 596.518C1222.38 657.975 1206.84 721.253 1214.48 783.774C1223.98 861.52 1284.46 938.165 1259.41 1012.37C1235.47 1083.25 1149.89 1112 1088.99 1155.45C1031.84 1196.22 974.966 1236.85 909.443 1262.05C843.56 1287.39 773.553 1293.88 703.645 1303.65C626.204 1314.47 545.141 1350.55 471.886 1323.21C398.916 1295.97 347.299 1225.6 310.573 1156.92C275.88 1092.03 282.117 1014.46 268.172 942.217C256.766 883.125 261.025 820.62 235.168 766.275C194.898 681.635 64.1176 630.626 75.6648 537.608C86.0725 453.77 209.554 437.756 281.457 393.402C338.054 358.489 400.06 336.612 457.051 302.345C514.162 268.006 562.802 223.636 620.177 189.741C693.735 146.288 767.62 38.1609 845.749 72.7235C935.513 112.433 899.121 264.981 961.525 340.745C1002.11 390.018 1088.89 375.855 1133.24 421.768C1177.69 467.784 1194.58 534.092 1208.59 596.518Z" fill="#C4C4C4"/>
</g>
<g filter="url(#filter1_ddd_1062_1391)">
<path fill-rule="evenodd" clip-rule="evenodd" d="M1176.59 603.853C1189.53 661.554 1174.92 720.968 1182.09 779.668C1191 852.663 1247.81 924.616 1224.26 994.295C1201.76 1060.84 1121.35 1087.85 1064.14 1128.65C1010.44 1166.94 957.005 1205.11 895.446 1228.78C833.549 1252.58 767.779 1258.68 702.102 1267.86C629.349 1278.04 553.188 1311.92 484.373 1286.26C415.825 1260.7 367.345 1194.64 332.854 1130.16C300.272 1069.24 306.143 996.406 293.054 928.58C282.348 873.1 286.358 814.413 262.076 763.392C224.257 683.93 101.404 636.057 112.266 548.721C122.057 470.002 238.065 454.947 305.62 413.292C358.796 380.503 417.051 359.953 470.597 327.771C524.255 295.521 569.957 253.854 623.864 222.021C692.974 181.21 762.402 79.6776 835.796 112.116C920.119 149.386 885.906 292.62 944.519 363.745C982.638 410.001 1064.17 396.691 1105.83 439.791C1147.58 482.989 1163.43 545.243 1176.59 603.853Z" fill="url(#paint0_linear_1062_1391)" shape-rendering="crispEdges"/>
</g>
<g filter="url(#filter2_ddd_1062_1391)">
<path fill-rule="evenodd" clip-rule="evenodd" d="M1156.98 608.159C1169.42 663.586 1155.38 720.659 1162.26 777.046C1170.82 847.164 1225.39 916.281 1202.77 983.215C1181.16 1047.14 1103.92 1073.08 1048.95 1112.28C997.369 1149.06 946.034 1185.72 886.897 1208.46C827.436 1231.33 764.255 1237.19 701.163 1246.01C631.273 1255.78 558.109 1288.34 492.003 1263.68C426.154 1239.13 379.582 1175.68 346.449 1113.73C315.151 1055.22 320.792 985.255 308.219 920.102C297.934 866.808 301.788 810.433 278.462 761.423C242.133 685.093 124.116 639.108 134.552 555.213C143.958 479.597 255.4 465.133 320.297 425.119C371.381 393.621 427.343 373.88 478.782 342.965C530.328 311.985 574.232 271.959 626.018 241.38C692.408 202.177 759.105 104.644 829.61 135.804C910.613 171.603 877.745 309.194 934.05 377.516C970.668 421.949 1048.99 409.161 1089.01 450.563C1129.12 492.058 1144.35 551.859 1156.98 608.159Z" fill="#E0DFE0"/>
</g>
</g>
<defs>
<filter id="filter0_d_1062_1391" x="42.9458" y="62.0168" width="1254.49" height="1331.22" filterUnits="userSpaceOnUse" color-interpolation-filters="sRGB">
<feFlood flood-opacity="0" result="BackgroundImageFix"/>
<feColorMatrix in="SourceAlpha" type="matrix" values="0 0 0 0 0 0 0 0 0 0 0 0 0 0 0 0 0 0 127 0" result="hardAlpha"/>
<feOffset dy="28"/>
<feGaussianBlur stdDeviation="16"/>
<feComposite in2="hardAlpha" operator="out"/>
<feColorMatrix type="matrix" values="0 0 0 0 0 0 0 0 0 0 0 0 0 0 0 0 0 0 0.25 0"/>
<feBlend mode="normal" in2="BackgroundImageFix" result="effect1_dropShadow_1062_1391"/>
<feBlend mode="normal" in="SourceGraphic" in2="effect1_dropShadow_1062_1391" result="shape"/>
</filter>
<filter id="filter1_ddd_1062_1391" x="92.589" y="95.8244" width="1156.34" height="1227.84" filterUnits="userSpaceOnUse" color-interpolation-filters="sRGB">
<feFlood flood-opacity="0" result="BackgroundImageFix"/>
<feColorMatrix in="SourceAlpha" type="matrix" values="0 0 0 0 0 0 0 0 0 0 0 0 0 0 0 0 0 0 127 0" result="hardAlpha"/>
<feOffset dy="9"/>
<feGaussianBlur stdDeviation="9.5"/>
<feComposite in2="hardAlpha" operator="out"/>
<feColorMatrix type="matrix" values="0 0 0 0 0 0 0 0 0 0 0 0 0 0 0 0 0 0 0.25 0"/>
<feBlend mode="normal" in2="BackgroundImageFix" result="effect1_dropShadow_1062_1391"/>
<feColorMatrix in="SourceAlpha" type="matrix" values="0 0 0 0 0 0 0 0 0 0 0 0 0 0 0 0 0 0 127 0" result="hardAlpha"/>
<feOffset dy="9"/>
<feGaussianBlur stdDeviation="9.5"/>
<feComposite in2="hardAlpha" operator="out"/>
<feColorMatrix type="matrix" values="0 0 0 0 0 0 0 0 0 0 0 0 0 0 0 0 0 0 0.25 0"/>
<feBlend mode="normal" in2="effect1_dropShadow_1062_1391" result="effect2_dropShadow_1062_1391"/>
<feColorMatrix in="SourceAlpha" type="matrix" values="0 0 0 0 0 0 0 0 0 0 0 0 0 0 0 0 0 0 127 0" result="hardAlpha"/>
<feOffset dy="9"/>
<feGaussianBlur stdDeviation="9.5"/>
<feComposite in2="hardAlpha" operator="out"/>
<feColorMatrix type="matrix" values="0 0 0 0 0 0 0 0 0 0 0 0 0 0 0 0 0 0 0.25 0"/>
<feBlend mode="normal" in2="effect2_dropShadow_1062_1391" result="effect3_dropShadow_1062_1391"/>
<feBlend mode="normal" in="SourceGraphic" in2="effect3_dropShadow_1062_1391" result="shape"/>
</filter>
<filter id="filter2_ddd_1062_1391" x="114.901" y="119.76" width="1112.32" height="1180.96" filterUnits="userSpaceOnUse" color-interpolation-filters="sRGB">
<feFlood flood-opacity="0" result="BackgroundImageFix"/>
<feColorMatrix in="SourceAlpha" type="matrix" values="0 0 0 0 0 0 0 0 0 0 0 0 0 0 0 0 0 0 127 0" result="hardAlpha"/>
<feOffset dy="9"/>
<feGaussianBlur stdDeviation="9.5"/>
<feComposite in2="hardAlpha" operator="out"/>
<feColorMatrix type="matrix" values="0 0 0 0 0 0 0 0 0 0 0 0 0 0 0 0 0 0 0.25 0"/>
<feBlend mode="normal" in2="BackgroundImageFix" result="effect1_dropShadow_1062_1391"/>
<feColorMatrix in="SourceAlpha" type="matrix" values="0 0 0 0 0 0 0 0 0 0 0 0 0 0 0 0 0 0 127 0" result="hardAlpha"/>
<feOffset dy="9"/>
<feGaussianBlur stdDeviation="9.5"/>
<feComposite in2="hardAlpha" operator="out"/>
<feColorMatrix type="matrix" values="0 0 0 0 0 0 0 0 0 0 0 0 0 0 0 0 0 0 0.25 0"/>
<feBlend mode="normal" in2="effect1_dropShadow_1062_1391" result="effect2_dropShadow_1062_1391"/>
<feColorMatrix in="SourceAlpha" type="matrix" values="0 0 0 0 0 0 0 0 0 0 0 0 0 0 0 0 0 0 127 0" result="hardAlpha"/>
<feOffset dy="9"/>
<feGaussianBlur stdDeviation="9.5"/>
<feComposite in2="hardAlpha" operator="out"/>
<feColorMatrix type="matrix" values="0 0 0 0 0 0 0 0 0 0 0 0 0 0 0 0 0 0 0.25 0"/>
<feBlend mode="normal" in2="effect2_dropShadow_1062_1391" result="effect3_dropShadow_1062_1391"/>
<feBlend mode="normal" in="SourceGraphic" in2="effect3_dropShadow_1062_1391" result="shape"/>
</filter>
<linearGradient id="paint0_linear_1062_1391" x1="977.297" y1="110.689" x2="962.77" y2="1341.16" gradientUnits="userSpaceOnUse">
<stop stop-color="#166B8C"/>
<stop offset="0.510417" stop-color="#2EEBA7" stop-opacity="0.76"/>
<stop offset="1" stop-color="#FE7C31"/>
</linearGradient>
</defs>
</svg>
