<svg xmlns="http://www.w3.org/2000/svg" width="214.623" height="95.02" viewBox="0 0 214.623 95.02">
  <g id="Group_150" data-name="Group 150" transform="translate(-20.496 -181.323)">
    <path id="Union_3" data-name="Union 3" d="M30.9,70.7a3.9,3.9,0,0,1,.334-4.7c3.577-4.054,13.538-11.46,24.914-9.979-5.624,4.654-8.713,7.658-10.5,10.2-6.582,0-11.079,9.748-10.348,11.828A61.778,61.778,0,0,0,30.9,70.7ZM13.984,50.689C9.675,40.68,60.238,27.561,71,30.441a4.134,4.134,0,0,1,.778.525c.26.15,2.543,3.582,2.768,3.781-6.181,4.142-7.072,8.86-11.355,12.9-8.451,1.08-42.747,5.712-39.781,12.364A61.43,61.43,0,0,0,13.984,50.689ZM0,32c5.348-3.12,7.046-4.163,10.76-7.758,9.8-4.431,34.414-9.128,43.555-7.644,2.392,4.674,3.83,5.157,8.563,8.259-10.159-1.277-49.8,5.764-44.92,9.51ZM24.136,8.683c2.28-3.879,4.9-4.923,8.217-5.937,2.192-.669,4.417-1.168,6.178-1.56A18.889,18.889,0,0,0,42.805,0a9.791,9.791,0,0,0,1.66,2.651c3.348,3.432,1.013,8.032-3.738,8.4-7.379.568-14.7.865-20.5,3.727l-.512.031C22.217,12.427,22.631,11.245,24.136,8.683Z" transform="translate(26.234 192.613)" fill="#64d1f5" stroke="rgba(0,0,0,0)" stroke-width="1"/>
    <path id="Union_2" data-name="Union 2" d="M41.647,90.33l-.18-.149a11.11,11.11,0,0,1-1.912-2.093c-1.063-2.286-4-7.318-4-8.3.776,2.406,3.146,2.635,6.3,3.692a14.307,14.307,0,0,1,2.994,1.207l1.614-2.851,2.617,9.2-9.246,2.51ZM30.6,73.286c-4.1-3.219-6.871-7.194-10.312-10.624a3.511,3.511,0,0,1-1.3-2.174c1.594,4.309,29.451,7.125,42.361,5.918a.88.88,0,0,1,.559,1.557c-4.052,3.525-10.294,8.434-11.032,8.87C46.293,76.832,35.567,76.847,30.6,73.286ZM1.435,48.878c-1.42-1.121-2.262-3.9-.207-5.55,5.977-4.784,10.99-6.55,14.765-8.477-7.356,7.087,10.3,11.2,28.454,11.863,17.778.646,36.041-2.05,31.795-5.658,0,0,2.783,1.487,9.309,5.178,3.314,1.874,1.568,4.854-2.024,6.746-9.586,5.048-21.472,6.926-33.25,6.926C28.64,59.905,7.371,53.564,1.435,48.878ZM23.365,31.833a3.162,3.162,0,0,1-.907-4.884c2.985-3.428,5.65-6.62,8.346-9.709-4.4,5.045,23.842,8.208,27.9,7.388,3.036,3.2,6.577,6.687,9.773,9.533a1.34,1.34,0,0,1-.645,2.317,65.817,65.817,0,0,1-10.855.728C45.491,37.206,30.382,35.486,23.365,31.833ZM44.226,13.654l-.43-.083-.355-.064,0-.008a17.67,17.67,0,0,1-4.155-1.386c-1.828-.878-2.833-1.833-3-2.849L34.64,11.536l-1.663-9.99L40.167.438,40.179.4l-.011.034L43.006,0,40.965,2.814A14.293,14.293,0,0,0,43.67,4.638l.034.019c1.068.613,1.921.735,2.458,1.844l.1.216c.036.066,3.136,5.805,4.33,7.629a4.574,4.574,0,0,1,.147,4.512S52.53,15.32,44.226,13.654Z" transform="translate(21 182)" fill="#334f65" stroke="rgba(0,0,0,0)" stroke-width="1"/>
    <path id="Union_1" data-name="Union 1" d="M76.066,67.879a3.625,3.625,0,0,1,3.755-3.964,5.3,5.3,0,0,1,2.069.386V65.48a5.815,5.815,0,0,0-1.937-.353,2.482,2.482,0,0,0-2.521,2.752c0,1.7.957,2.787,2.467,2.787a3.9,3.9,0,0,0,1.045-.155V67.671H82.21v3.612a5.466,5.466,0,0,1-2.435.562C77.519,71.844,76.066,70.292,76.066,67.879Zm-38.041,0c0-2.4,1.4-3.964,3.545-3.964s3.545,1.564,3.545,3.964-1.4,3.965-3.545,3.965S38.025,70.28,38.025,67.879Zm1.377,0c0,1.686.858,2.787,2.169,2.787s2.17-1.1,2.17-2.787-.859-2.785-2.17-2.785S39.4,66.2,39.4,67.879Zm-37.733,0a3.625,3.625,0,0,1,3.755-3.964,5.3,5.3,0,0,1,2.069.386V65.48a5.819,5.819,0,0,0-1.938-.353,2.481,2.481,0,0,0-2.519,2.752c0,1.7.958,2.787,2.466,2.787a3.891,3.891,0,0,0,1.045-.155V67.671H7.812v3.612a5.462,5.462,0,0,1-2.434.562C3.122,71.844,1.668,70.292,1.668,67.879ZM114.2,71.734l-.518-1.7h-3.039l-.517,1.7h-1.377l2.491-7.707h1.86l2.488,7.707Zm-3.193-2.864h2.322l-1.156-3.775h-.022ZM95.03,71.734V64.027h1.309v7.707Zm-32.853,0-1.465-2.675H59.225l-.01,2.675h-1.3V64.027h2.874a2.4,2.4,0,0,1,2.577,2.51,2.311,2.311,0,0,1-1.333,2.224l-.012.033,1.674,2.94Zm-2.951-3.82h1.542a1.382,1.382,0,0,0,0-2.755H59.225Zm-38.593,3.82V64.027h5.009v1.167h-3.7v2.135h3.084v1.135H21.943v2.1h3.7v1.168Zm89.052-17.755-1.1-4.654H100.3l-1.105,4.654H91.269l7.688-27.6h11l7.649,27.6Zm-7.846-11.2H107l-2.524-10.568h-.116ZM81.69,53.979v-27.6h7.572v27.6Zm-27.12,0v-27.6H66.282c7.373,0,12.265,5.521,12.265,13.8s-4.892,13.8-12.265,13.8ZM62.1,47.394h3.549c3.076,0,4.968-2.721,4.968-7.216s-1.892-7.217-4.968-7.217H62.1ZM32.338,53.979v-27.6H51.7V32.96H39.91v4.1h9.466v6.113H39.91v4.219H51.7v6.585Zm-11.225,0V39.743h-.159l-4.694,8.4H13.028l-4.693-8.4H8.217V53.979H.645v-27.6H7.863l6.783,12.145,6.781-12.145h7.217v27.6ZM102.9,17.328V13.067a17.1,17.1,0,0,0,5.827,1.181c1.617,0,2.516-.436,2.516-1.207,0-2.285-8.678-.924-8.678-7.752C102.569,2,105.266,0,109.731,0a14.9,14.9,0,0,1,5.6,1.1V5.365a15.313,15.313,0,0,0-5.135-1.156c-1.643,0-2.541.463-2.541,1.206,0,2.183,8.676,1.028,8.676,7.5,0,3.464-2.746,5.57-7.342,5.57A14.5,14.5,0,0,1,102.9,17.328Zm-15.042,0V13.067a17.1,17.1,0,0,0,5.827,1.181c1.618,0,2.516-.436,2.516-1.207,0-2.285-8.678-.924-8.678-7.752C87.528,2,90.223,0,94.689,0a14.9,14.9,0,0,1,5.6,1.1V5.365A15.317,15.317,0,0,0,95.152,4.21c-1.643,0-2.541.463-2.541,1.206,0,2.183,8.676,1.028,8.676,7.5,0,3.464-2.746,5.57-7.342,5.57A14.5,14.5,0,0,1,87.862,17.328Zm-54.391,0V13.067A17.1,17.1,0,0,0,39.3,14.248c1.618,0,2.516-.436,2.516-1.207,0-2.285-8.678-.924-8.678-7.752C33.136,2,35.832,0,40.3,0a14.906,14.906,0,0,1,5.6,1.1V5.365A15.317,15.317,0,0,0,40.761,4.21c-1.643,0-2.541.463-2.541,1.206,0,2.183,8.676,1.028,8.676,7.5,0,3.464-2.746,5.57-7.342,5.57A14.5,14.5,0,0,1,33.471,17.328Zm-17.4-5.468V.257H21V11.475a2.337,2.337,0,0,0,2.643,2.67,2.338,2.338,0,0,0,2.645-2.67V.257h4.928v11.6c0,4.312-2.644,6.623-7.573,6.623S16.067,16.173,16.067,11.861Zm57.5,6.366V.257h12.6V4.544H78.493v2.67h6.16v3.979h-6.16v2.746h7.674v4.288Zm-7.057,0L60.834,8.343h-.077v9.884H55.983V.257H60.6l5.674,9.832h.1V.257h4.775v17.97Zm-17.84,0V.257H53.6v17.97ZM0,18.227V.257H7.623c3.594,0,6.033,1.8,6.033,4.544a4.41,4.41,0,0,1-2.928,4.286v.078a4.529,4.529,0,0,1,3.492,4.492c0,2.823-2.49,4.57-6.6,4.57Zm4.825-4.108H7.239c1.181,0,1.976-.59,1.976-1.515a1.536,1.536,0,0,0-1.72-1.541H4.825Zm0-6.7H7.213A1.476,1.476,0,0,0,8.779,5.827,1.444,1.444,0,0,0,7.213,4.364H4.825Z" transform="translate(116.852 195.161)" fill="#334f65" stroke="rgba(0,0,0,0)" stroke-width="1"/>
  </g>
</svg>
