<svg width="15" height="16" viewBox="0 0 15 16" fill="none" xmlns="http://www.w3.org/2000/svg">
<path d="M2.229 15.7581C1.8165 15.7581 1.46325 15.6114 1.16925 15.3179C0.875754 15.0239 0.729004 14.6706 0.729004 14.2581V3.75815C0.729004 3.34565 0.875754 2.99265 1.16925 2.69915C1.46325 2.40515 1.8165 2.25815 2.229 2.25815H2.979V0.758148H4.479V2.25815H10.479V0.758148H11.979V2.25815H12.729C13.1415 2.25815 13.4948 2.40515 13.7888 2.69915C14.0823 2.99265 14.229 3.34565 14.229 3.75815V14.2581C14.229 14.6706 14.0823 15.0239 13.7888 15.3179C13.4948 15.6114 13.1415 15.7581 12.729 15.7581H2.229ZM2.229 14.2581H12.729V6.75815H2.229V14.2581ZM2.229 5.25815H12.729V3.75815H2.229V5.25815ZM2.229 5.25815V3.75815V5.25815Z" fill="#202020"/>
</svg>
