<svg width="37" height="43" viewBox="0 0 37 43" fill="none" xmlns="http://www.w3.org/2000/svg">
<path d="M14.672 18.0675C15.8984 18.0675 16.8918 18.9709 16.8693 20.0751C16.8693 21.1792 15.9004 22.0826 14.672 22.0826C13.466 22.0826 12.4726 21.1792 12.4726 20.0751C12.4726 18.9709 13.4435 18.0675 14.672 18.0675ZM22.5373 18.0675C23.7657 18.0675 24.7367 18.9709 24.7367 20.0751C24.7367 21.1792 23.7657 22.0826 22.5373 22.0826C21.3313 22.0826 20.34 21.1792 20.34 20.0751C20.34 18.9709 21.3089 18.0675 22.5373 18.0675ZM32.6899 0C35.0671 0 37.0007 1.93925 37.0007 4.34223V42.1576L32.4814 38.1526L29.9366 35.7918L27.2446 33.2824L28.3607 37.183H4.5194C2.14222 37.183 0.208588 35.2438 0.208588 32.8408V4.34223C0.208588 1.93925 2.14222 0 4.5194 0H32.6878H32.6899ZM24.5752 27.5289C29.2212 27.3824 31.0097 24.3249 31.0097 24.3249C31.0097 17.5376 27.9805 12.035 27.9805 12.035C24.9554 9.76049 22.0733 9.82272 22.0733 9.82272L21.779 10.16C25.3539 11.2561 27.0137 12.838 27.0137 12.838C25.0618 11.7579 22.9106 11.0701 20.6854 10.8144C19.2739 10.6579 17.8482 10.6713 16.44 10.8546C16.3133 10.8546 16.207 10.8767 16.0823 10.8967C15.3465 10.961 13.558 11.234 11.3096 12.2257C10.5329 12.583 10.0689 12.838 10.0689 12.838C10.0689 12.838 11.8145 11.1718 15.5979 10.0757L15.3874 9.82272C15.3874 9.82272 12.5074 9.76049 9.4802 12.037C9.4802 12.037 6.45302 17.5376 6.45302 24.3249C6.45302 24.3249 8.21905 27.3804 12.8651 27.5289C12.8651 27.5289 13.6418 26.5814 14.2754 25.7804C11.6039 24.9774 10.5962 23.2911 10.5962 23.2911C10.5962 23.2911 10.8047 23.4396 11.1829 23.6504C11.2033 23.6705 11.2237 23.6926 11.2667 23.7127C11.33 23.7568 11.3934 23.7769 11.4567 23.819C11.9821 24.1142 12.5074 24.345 12.9898 24.5357C13.8523 24.873 14.8825 25.2102 16.0823 25.4431C17.8797 25.7891 19.7276 25.7959 21.5276 25.4632C22.576 25.2794 23.5988 24.9755 24.5752 24.5578C25.311 24.2828 26.1307 23.8813 26.9932 23.3132C26.9932 23.3132 25.9426 25.0416 23.1873 25.8225C23.8189 26.6235 24.5772 27.5289 24.5772 27.5289H24.5752Z" fill="#9E9E9E"/>
</svg>
