<svg width="38" height="37" viewBox="0 0 38 37" fill="none" xmlns="http://www.w3.org/2000/svg">
<path d="M35.6809 0H2.96663C2.42712 0.00401138 1.91085 0.220111 1.52935 0.601612C1.14785 0.983113 0.931746 1.49939 0.927734 2.0389V34.7532C0.931746 35.2927 1.14785 35.809 1.52935 36.1905C1.91085 36.572 2.42712 36.7881 2.96663 36.7921H20.5808V22.5658H15.7979V17.001H20.5808V12.9079C20.5808 8.15558 23.4782 5.5648 27.74 5.5648C29.1657 5.5648 30.5914 5.5648 32.0171 5.77942V10.731H29.089C26.7742 10.731 26.3296 11.8348 26.3296 13.4444V16.9857H31.8484L31.1279 22.5505H26.3296V36.7921H35.6809C36.2204 36.7881 36.7367 36.572 37.1182 36.1905C37.4997 35.809 37.7158 35.2927 37.7198 34.7532V2.0389C37.7158 1.49939 37.4997 0.983113 37.1182 0.601612C36.7367 0.220111 36.2204 0.00401138 35.6809 0Z" fill="#9E9E9E"/>
</svg>
