<svg width="13" height="13" viewBox="0 0 13 13" fill="none" xmlns="http://www.w3.org/2000/svg">
<path d="M4.53462 6.25815C4.08462 6.25815 3.70962 6.0894 3.40962 5.7519C3.10962 5.4144 2.99087 5.02065 3.05337 4.57065L3.29712 2.73315C3.39712 2.02065 3.72212 1.43015 4.27212 0.961648C4.82212 0.492648 5.46587 0.258148 6.20337 0.258148C6.94087 0.258148 7.58462 0.492648 8.13462 0.961648C8.68462 1.43015 9.00962 2.02065 9.10962 2.73315L9.35337 4.57065C9.41587 5.02065 9.29712 5.4144 8.99712 5.7519C8.69712 6.0894 8.32212 6.25815 7.87212 6.25815H4.53462ZM4.53462 4.75815H7.87212L7.62837 2.95815C7.57837 2.60815 7.41912 2.32065 7.15062 2.09565C6.88162 1.87065 6.56587 1.75815 6.20337 1.75815C5.84087 1.75815 5.52537 1.87065 5.25687 2.09565C4.98787 2.32065 4.82837 2.60815 4.77837 2.95815L4.53462 4.75815ZM0.203369 12.2581V10.1581C0.203369 9.73315 0.312869 9.3424 0.531869 8.9859C0.750369 8.6299 1.04087 8.35815 1.40337 8.17065C2.17837 7.78315 2.96587 7.4924 3.76587 7.2984C4.56587 7.1049 5.37837 7.00815 6.20337 7.00815C7.02837 7.00815 7.84087 7.1049 8.64087 7.2984C9.44087 7.4924 10.2284 7.78315 11.0034 8.17065C11.3659 8.35815 11.6564 8.6299 11.8749 8.9859C12.0939 9.3424 12.2034 9.73315 12.2034 10.1581V12.2581H0.203369ZM1.70337 10.7581H10.7034V10.1581C10.7034 10.0206 10.6691 9.89565 10.6006 9.78315C10.5316 9.67065 10.4409 9.58315 10.3284 9.52065C9.65337 9.18315 8.97212 8.9299 8.28462 8.7609C7.59712 8.5924 6.90337 8.50815 6.20337 8.50815C5.50337 8.50815 4.80962 8.5924 4.12212 8.7609C3.43462 8.9299 2.75337 9.18315 2.07837 9.52065C1.96587 9.58315 1.87537 9.67065 1.80687 9.78315C1.73787 9.89565 1.70337 10.0206 1.70337 10.1581V10.7581Z" fill="#202020"/>
</svg>
