<svg width="38" height="37" viewBox="0 0 38 37" fill="none" xmlns="http://www.w3.org/2000/svg">
<path d="M18.639 12.2614C15.2611 12.2614 12.5045 15.0181 12.5045 18.396C12.5045 21.774 15.2611 24.5307 18.639 24.5307C22.0169 24.5307 24.7735 21.774 24.7735 18.396C24.7735 15.0181 22.0169 12.2614 18.639 12.2614ZM37.038 18.396C37.038 15.8557 37.061 13.3383 36.9183 10.8025C36.7757 7.85719 36.1038 5.24318 33.95 3.08939C31.7916 0.930997 29.1823 0.26369 26.237 0.121024C23.6967 -0.0216418 21.1793 0.00136887 18.6436 0.00136887C16.1033 0.00136887 13.586 -0.0216418 11.0503 0.121024C8.10497 0.26369 5.49101 0.935599 3.33726 3.08939C1.1789 5.24779 0.51161 7.85719 0.368947 10.8025C0.226283 13.3429 0.249294 15.8603 0.249294 18.396C0.249294 20.9318 0.226283 23.4538 0.368947 25.9895C0.51161 28.9349 1.18351 31.5489 3.33726 33.7027C5.49561 35.8611 8.10497 36.5284 11.0503 36.6711C13.5906 36.8137 16.1079 36.7907 18.6436 36.7907C21.184 36.7907 23.7013 36.8137 26.237 36.6711C29.1823 36.5284 31.7962 35.8565 33.95 33.7027C36.1084 31.5443 36.7757 28.9349 36.9183 25.9895C37.0656 23.4538 37.038 20.9364 37.038 18.396ZM18.639 27.835C13.4157 27.835 9.20025 23.6195 9.20025 18.396C9.20025 13.1726 13.4157 8.9571 18.639 8.9571C23.8623 8.9571 28.0778 13.1726 28.0778 18.396C28.0778 23.6195 23.8623 27.835 18.639 27.835ZM28.4644 10.7749C27.2448 10.7749 26.26 9.79008 26.26 8.57052C26.26 7.35096 27.2448 6.3661 28.4644 6.3661C29.6839 6.3661 30.6688 7.35096 30.6688 8.57052C30.6691 8.86011 30.6123 9.14692 30.5017 9.41454C30.391 9.68216 30.2287 9.92531 30.0239 10.1301C29.8191 10.3349 29.576 10.4972 29.3084 10.6079C29.0408 10.7185 28.754 10.7753 28.4644 10.7749Z" fill="#9E9E9E"/>
</svg>
