<svg width="27" height="25" viewBox="0 0 27 25" fill="none" xmlns="http://www.w3.org/2000/svg">
<path d="M6.25332 3.66666C6.25296 4.3739 5.97167 5.05204 5.47133 5.55188C4.97098 6.05173 4.29256 6.33234 3.58532 6.33199C2.87807 6.33164 2.19994 6.05035 1.70009 5.55C1.20024 5.04965 0.91963 4.37123 0.919983 3.66399C0.920337 2.95675 1.20163 2.27861 1.70197 1.77876C2.20232 1.27892 2.88074 0.998304 3.58798 0.998658C4.29523 0.999011 4.97336 1.2803 5.47321 1.78065C5.97306 2.281 6.25367 2.95941 6.25332 3.66666ZM6.33332 8.30666H0.999983V25H6.33332V8.30666ZM14.76 8.30666H9.45332V25H14.7066V16.24C14.7066 11.36 21.0667 10.9067 21.0667 16.24V25H26.3333V14.4267C26.3333 6.19999 16.92 6.50666 14.7066 10.5467L14.76 8.30666Z" fill="#ECECEC"/>
</svg>
