<svg width="38" height="37" viewBox="0 0 38 37" fill="none" xmlns="http://www.w3.org/2000/svg">
<path d="M33.2722 0C34.3564 0 35.3962 0.4307 36.1629 1.19735C36.9295 1.964 37.3602 3.0038 37.3602 4.08801V32.7041C37.3602 33.7883 36.9295 34.8281 36.1629 35.5947C35.3962 36.3614 34.3564 36.7921 33.2722 36.7921H4.65613C3.57192 36.7921 2.53212 36.3614 1.76547 35.5947C0.998815 34.8281 0.568115 33.7883 0.568115 32.7041V4.08801C0.568115 3.0038 0.998815 1.964 1.76547 1.19735C2.53212 0.4307 3.57192 0 4.65613 0H33.2722ZM32.2502 31.6821V20.8489C32.2502 19.0816 31.5482 17.3867 30.2985 16.1371C29.0489 14.8874 27.354 14.1854 25.5867 14.1854C23.8493 14.1854 21.8258 15.2483 20.8446 16.8426V14.5738H15.1419V31.6821H20.8446V21.6051C20.8446 20.0313 22.1119 18.7435 23.6858 18.7435C24.4448 18.7435 25.1726 19.045 25.7093 19.5817C26.2459 20.1183 26.5474 20.8462 26.5474 21.6051V31.6821H32.2502ZM8.49886 11.3647C9.40959 11.3647 10.283 11.0029 10.927 10.3589C11.571 9.71491 11.9328 8.84148 11.9328 7.93074C11.9328 6.02982 10.3998 4.47637 8.49886 4.47637C7.5827 4.47637 6.70407 4.84031 6.05625 5.48813C5.40843 6.13595 5.04449 7.01459 5.04449 7.93074C5.04449 9.83167 6.59793 11.3647 8.49886 11.3647ZM11.34 31.6821V14.5738H5.67813V31.6821H11.34Z" fill="#9E9E9E"/>
</svg>
