<svg width="13" height="16" viewBox="0 0 13 16" fill="none" xmlns="http://www.w3.org/2000/svg">
<path d="M6.479 8.25815C6.8915 8.25815 7.24475 8.11115 7.53875 7.81715C7.83225 7.52365 7.979 7.17065 7.979 6.75815C7.979 6.34565 7.83225 5.9924 7.53875 5.6984C7.24475 5.4049 6.8915 5.25815 6.479 5.25815C6.0665 5.25815 5.7135 5.4049 5.42 5.6984C5.126 5.9924 4.979 6.34565 4.979 6.75815C4.979 7.17065 5.126 7.52365 5.42 7.81715C5.7135 8.11115 6.0665 8.25815 6.479 8.25815ZM6.479 13.7706C8.004 12.3706 9.13525 11.0986 9.87275 9.95465C10.6103 8.81115 10.979 7.79565 10.979 6.90815C10.979 5.54565 10.5445 4.4299 9.6755 3.5609C8.807 2.6924 7.7415 2.25815 6.479 2.25815C5.2165 2.25815 4.15075 2.6924 3.28175 3.5609C2.41325 4.4299 1.979 5.54565 1.979 6.90815C1.979 7.79565 2.34775 8.81115 3.08525 9.95465C3.82275 11.0986 4.954 12.3706 6.479 13.7706ZM6.479 15.7581C4.4665 14.0456 2.9635 12.4549 1.97 10.9859C0.976004 9.5174 0.479004 8.15815 0.479004 6.90815C0.479004 5.03315 1.08225 3.5394 2.28875 2.4269C3.49475 1.3144 4.8915 0.758148 6.479 0.758148C8.0665 0.758148 9.46325 1.3144 10.6693 2.4269C11.8758 3.5394 12.479 5.03315 12.479 6.90815C12.479 8.15815 11.9823 9.5174 10.9888 10.9859C9.99475 12.4549 8.4915 14.0456 6.479 15.7581Z" fill="#202020"/>
</svg>
