<svg width="189" height="61" viewBox="0 0 189 61" fill="none" xmlns="http://www.w3.org/2000/svg">
<path d="M21.0023 0.00985909C19.6997 0.060492 17.028 0.296779 15.8006 0.469775C14.5069 0.65121 13.7492 0.803109 11.0864 1.44024C7.90954 2.19552 6.36765 2.66387 5.2068 3.23349C3.85101 3.90016 3.03132 5.17442 3.02246 6.6259C3.02246 7.06894 3.08449 7.30945 3.23957 7.49088C3.42566 7.69763 3.53642 7.67232 4.59537 7.16177C6.11953 6.42759 7.37786 5.99721 10.3464 5.1913C11.2592 4.94658 12.4687 4.61324 13.027 4.4529C14.6664 3.98877 14.9987 3.92126 17.1033 3.63434C19.0041 3.37273 20.3377 3.26725 22.9208 3.17864C25.6324 3.08581 27.8478 3.22927 31.0157 3.69763C33.6166 4.0816 34.3698 4.26303 35.987 4.87907C37.1922 5.33898 37.4669 5.38961 37.6352 5.18708C37.8125 4.97189 37.7371 4.61746 37.3472 3.82843C37.0149 3.15332 36.6738 2.68075 36.1819 2.21661C35.5262 1.60058 34.7109 1.11535 33.8957 0.87062C32.8722 0.558383 30.3201 0.208171 28.025 0.0647116C27.3958 0.0225172 21.7201 -0.0196767 21.0023 0.00985909Z" fill="#ECECEC"/>
<path d="M41.3608 3.30947C41.2101 3.3601 41.0595 3.44871 40.9664 3.54576C40.8202 3.70187 40.8202 3.70609 40.8379 4.04787C40.8601 4.41917 40.8601 4.41496 41.5291 5.88753C41.9501 6.81158 42.1672 7.4234 42.495 8.58796C42.6324 9.06475 42.8318 9.7483 42.9381 10.1069C45.0427 17.0479 45.3972 20.3348 44.6129 25.6555C44.0502 29.4952 43.4654 31.9931 42.4109 35.107C41.4095 38.0648 40.6386 39.9424 39.6549 41.837C38.3612 44.3264 37.5725 45.453 34.2761 49.5374C31.5999 52.8581 30.8999 53.4952 29.7567 53.6513C29.2295 53.7231 28.8396 53.626 28.0155 53.2209C26.8457 52.6513 24.0234 50.7019 22.1758 49.183C21.4447 48.5838 19.5661 46.8074 18.804 45.9931C15.4632 42.4277 13.146 38.6893 11.4712 34.1703C10.523 31.6091 10.0666 29.8749 9.75204 27.6471C9.58367 26.4614 9.50835 25.3855 9.45961 23.5036C9.40201 21.2082 9.34442 20.7483 9.07857 20.4487C8.29877 19.5669 6.07898 21.7019 5.67578 23.723C5.51628 24.5373 5.53843 25.2673 5.78655 26.9424C6.01695 28.4867 6.27836 29.6049 6.82334 31.3095C7.00943 31.8918 7.27084 32.761 7.40376 33.2504C8.22344 36.2251 9.71216 39.5036 11.4446 42.1534C13.0972 44.6808 15.2771 47.626 16.6595 49.1998C19.0964 51.972 23.505 55.3053 26.9875 57.0058C28.3256 57.6598 29.4687 57.8243 30.8378 57.5543C31.8923 57.3433 32.9646 56.8159 34.1609 55.9045C35.1179 55.1787 36.5933 53.6977 37.67 52.3855C39.5752 50.0606 41.7994 46.6387 43.2483 43.799C45.8092 38.7737 47.8606 32.7188 48.6449 27.8707C48.9462 26.0184 49.0038 25.1703 48.9993 22.6808C48.9993 20.4572 48.9595 19.6555 48.7556 17.9973C48.6006 16.7019 48.1929 14.3939 47.8961 13.1238C47.1517 9.93395 45.9377 6.73563 44.7237 4.76517C44.1344 3.81158 43.2305 3.28837 42.0918 3.24618C41.6842 3.2293 41.5646 3.24196 41.3608 3.30947Z" fill="#ECECEC"/>
<path d="M22.6861 5.53309C22.0968 5.56263 21.2683 5.63858 20.4929 5.73984C16.2439 6.28837 15.4552 6.41495 14.0108 6.75672C12.7791 7.04786 10.6169 7.74829 8.48569 8.53732C8.10908 8.68078 7.13432 8.99723 6.31907 9.24618C3.4391 10.1238 2.51308 10.4614 1.95481 10.8411C1.34337 11.2588 0.749659 11.9761 0.470524 12.647C0.204681 13.2757 0.133789 13.6428 0.133789 14.4107C0.133789 15.0394 0.14265 15.128 0.231265 15.3053C0.328741 15.512 0.461662 15.5837 0.638891 15.5289C0.687629 15.5162 0.869288 15.3896 1.04209 15.2546C1.3611 14.9972 1.83518 14.6808 2.19407 14.4867C2.62385 14.2546 5.73865 12.9761 7.13432 12.4614C11.1707 10.9719 14.7064 9.9677 17.3471 9.56264C18.9776 9.30947 19.9125 9.24196 22.6197 9.17445C26.758 9.07318 27.9986 9.20398 31.0823 10.0647C32.7704 10.5331 33.0319 10.5837 33.3154 10.4698C33.4794 10.4065 33.4838 10.3939 33.4616 10.2377C33.4173 9.92129 32.5976 8.10272 32.3229 7.71453C32.1103 7.41495 31.7691 7.15335 31.2596 6.9044C30.7766 6.66812 30.5418 6.58795 29.5848 6.33056C28.2821 5.98035 26.9884 5.74406 25.6591 5.61326C25.0167 5.54997 23.2976 5.50356 22.6861 5.53309Z" fill="#ECECEC"/>
<path d="M36.1988 7.80733C35.9507 7.89172 35.7469 8.11535 35.7114 8.3432C35.6494 8.74404 35.8266 9.30522 36.5311 10.9086C38.1262 14.55 38.7465 16.9044 38.9281 20.0225C39.0168 21.5331 38.8838 24.4656 38.6313 26.5415C38.2414 29.782 37.4306 32.8496 36.0836 36.1745C34.6924 39.6006 33.5847 41.5162 31.2896 44.4403C30.8199 45.0395 30.2262 45.8116 29.9737 46.1618C29.0388 47.453 28.6134 47.9466 27.8957 48.5838C27.3019 49.107 27.1602 49.3095 27.1602 49.6471C27.1602 49.8369 27.1867 49.9255 27.2931 50.0901C27.6741 50.6724 29.1363 51.3686 29.8762 51.3179C30.9085 51.2462 32.0517 49.9931 34.0455 46.7568C34.5816 45.8918 36.2476 43.0774 36.952 41.858C37.528 40.8622 38.2059 39.5753 38.5161 38.896C40.4966 34.5837 41.7106 30.2926 42.1803 25.9508C42.3354 24.5458 42.3442 22.4909 42.2246 18.9466C42.1271 16.1871 41.8524 14.0985 41.3163 12.0478C41.0017 10.8453 40.7314 10.2504 40.2308 9.65543C39.194 8.41914 37.1559 7.48666 36.1988 7.80733Z" fill="#ECECEC"/>
<path d="M20.4476 11.0816C17.7759 11.2082 13.9832 11.9339 11.8077 12.7356C11.0855 13.0014 9.95564 13.55 9.38851 13.9086C8.70175 14.3474 7.99283 15.031 7.51432 15.7187C7.11555 16.2926 6.08763 18.2124 5.92369 18.6934C5.72874 19.2588 5.75089 19.5584 5.98572 19.5584C6.14966 19.5584 6.38892 19.4318 7.17758 18.9255C8.27197 18.2251 9.08279 17.7736 10.1462 17.2757C12.1577 16.3348 13.6996 15.7863 15.7289 15.2968C18.4272 14.6428 20.8596 14.3559 23.7042 14.3559C25.9815 14.3559 27.6475 14.512 29.7521 14.9213C31.5465 15.2715 32.9644 15.7609 34.8917 16.6934C35.831 17.1491 36.0659 17.2335 36.283 17.1787C36.5222 17.1196 36.5267 16.723 36.2874 16.1407C36.1279 15.7483 35.4145 14.4529 35.1443 14.0605C34.5373 13.1829 33.5891 12.4867 32.4991 12.1111C31.7946 11.8706 29.2869 11.4698 27.3595 11.2926C26.11 11.1744 25.2505 11.128 23.425 11.0774C21.7236 11.031 21.4755 11.031 20.4476 11.0816Z" fill="#ECECEC"/>
<path d="M21.0686 16.2673C17.5639 16.4614 15.0339 17.0563 13.5984 18.0226C13.1642 18.3137 12.6768 18.8369 12.473 19.2335C12.1894 19.782 12.1097 20.1449 12.1008 20.8875C12.0964 21.6344 12.1628 21.9002 12.4287 22.1871L12.597 22.3643L12.9914 22.377C13.4566 22.3939 13.8819 22.3306 15.765 21.9424C16.9524 21.6977 18.4456 21.4276 19.407 21.2842C19.8723 21.2166 20.6432 21.2124 20.878 21.2799C21.1572 21.3601 21.4274 21.5753 21.5604 21.8285C21.7287 22.1534 21.9458 23.1956 22.0655 24.2715C22.1098 24.6808 22.1319 25.3601 22.1319 26.5415C22.1319 28.7652 22.2028 29.8032 22.3845 30.3348C22.4687 30.588 22.7744 30.896 23.089 31.0479C23.7137 31.3475 24.7328 31.4867 25.9423 31.4361C27.5153 31.3686 27.9938 31.4361 29.7085 31.993C30.6256 32.2884 30.918 32.5036 31.082 33.0099C31.2371 33.4867 31.1839 33.8833 30.9313 34.1449C30.7009 34.3854 30.4971 34.3812 29.3939 34.1238C27.79 33.7441 28.0957 33.761 23.5719 33.7694C21.3787 33.7736 18.8842 33.7989 18.0291 33.8285C16.2701 33.8833 16.1106 33.8665 16.5714 33.6724C18.1399 33.0226 18.8532 32.4572 19.3672 31.4783C19.6995 30.8411 19.7526 30.5711 19.7571 29.5162C19.7615 29.0183 19.7438 28.1829 19.7216 27.6597C19.6906 26.9593 19.695 26.5753 19.7393 26.204C19.8235 25.4361 19.8058 24.9635 19.6773 24.4909C19.5045 23.8453 19.3361 23.5922 18.9507 23.4276C18.7779 23.3559 18.6671 23.339 18.2994 23.3432C17.4531 23.3517 16.1638 23.5964 15.3308 23.9086C14.8523 24.0858 13.2971 24.8875 12.8629 25.1787C12.3666 25.512 12.1805 25.9508 12.1362 26.858C12.1008 27.5373 12.185 28.0605 12.4464 28.8285C12.5527 29.1491 12.7565 29.7989 12.8939 30.2757C13.1996 31.3348 14.1744 34.1365 14.5687 35.0859C15.1225 36.4361 15.508 37.1576 16.3188 38.377C17.041 39.4614 18.4234 41.4361 18.7247 41.8201C19.3361 42.5964 19.9299 43.0099 20.6919 43.1871C21.6047 43.4023 23.8821 43.5036 24.91 43.3812C26.6247 43.1703 28.1223 42.5669 29.4648 41.5374C29.9389 41.1745 30.8206 40.3348 31.1927 39.896C31.5649 39.453 32.1188 38.6513 32.5353 37.9551C32.7302 37.6344 33.1511 36.761 33.6252 35.7188C34.0506 34.7778 34.5955 33.5669 34.8437 33.031C35.8361 30.8454 36.3811 29.2167 36.4299 28.2631C36.4609 27.7188 36.4121 27.415 36.2172 26.934C35.8716 26.0774 34.9411 25.128 33.9619 24.6302C33.0492 24.1618 31.8308 23.8622 30.2534 23.7145C28.8267 23.5837 27.369 23.3728 26.9393 23.242C26.3323 23.0605 25.9113 22.723 25.6632 22.2251C25.4195 21.7272 25.5081 21.1449 25.8936 20.782C26.1373 20.5542 26.3411 20.4867 26.7886 20.4867C27.1475 20.4909 27.4488 20.5584 28.9552 20.9846C29.4559 21.1238 30.6921 21.4614 31.7023 21.7314C32.7125 22.0057 33.9664 22.3601 34.4848 22.5204C35.4905 22.8285 35.8228 22.8875 36.1153 22.8116C36.6027 22.685 36.7533 22.3306 36.8198 21.1618C36.8508 20.6386 36.7932 19.9297 36.6868 19.5331C36.4963 18.8285 36.0045 18.1998 35.4019 17.9044C35.012 17.7145 34.0683 17.4023 33.3904 17.2377C32.389 16.9972 31.6713 16.9002 29.4426 16.7103C28.747 16.6512 27.7412 16.5458 27.2051 16.4782C26.669 16.4107 25.9911 16.3348 25.6987 16.3095C24.9897 16.2462 21.9325 16.2209 21.0686 16.2673ZM25.8626 37.4867C26.3899 37.6175 26.6823 37.7694 27.0102 38.0774C27.4178 38.4698 27.5596 38.7568 27.5596 39.1998C27.5596 39.4867 27.5374 39.5711 27.4355 39.761C27.2716 40.0563 27.0057 40.3011 26.7133 40.4319C26.3677 40.5838 26.1683 40.5711 25.7208 40.3686C25.2334 40.1534 24.622 40.0057 24.3251 40.0352C24.2055 40.0479 23.984 40.0985 23.8378 40.1492C22.7256 40.5331 22.6902 40.5458 22.3535 40.5458C22.0788 40.55 21.9769 40.5289 21.7686 40.4319C21.1527 40.1449 20.8204 39.4234 20.9977 38.7568C21.1395 38.2209 21.4053 37.9466 22.0212 37.7061C22.5396 37.4994 22.9029 37.4403 23.9042 37.4065C25.0429 37.3644 25.4328 37.3812 25.8626 37.4867Z" fill="#ECECEC"/>
<path d="M2.68058 17.0858C2.43246 17.1491 1.94065 17.3981 1.61721 17.6301C0.859559 18.166 0.398764 18.7652 0.106337 19.5795L0 19.8749L0.00443072 22.301C0.00886143 28.1618 0.438641 31.3221 1.70583 34.9171C2.54766 37.3053 4.36426 41.1787 5.73778 43.5247C7.56766 46.6428 9.84505 49.7525 12.1579 52.3011C13.2523 53.5078 15.7734 55.8158 18.3033 57.9171C19.5217 58.934 20.4876 59.5838 21.4004 60.0099C22.9245 60.7146 24.8696 61.0817 26.5887 60.9846C27.3951 60.9424 27.9268 60.7526 28.0243 60.4699C28.1528 60.0943 27.9667 59.9298 25.2772 58.1028C21.1212 55.2758 19.4376 54.0564 18.1438 52.9551C15.5784 50.761 11.9231 46.4361 9.86721 43.166C8.83042 41.512 8.21898 40.2209 6.75684 36.6048C5.38775 33.2209 5.17508 32.5373 4.38641 29.031C3.51356 25.1491 3.39836 23.4867 3.74839 19.9382C3.85915 18.8453 3.87688 17.8495 3.79712 17.5879C3.65091 17.1196 3.24771 16.9382 2.68058 17.0858Z" fill="#ECECEC"/>
<path d="M65.7642 30.5V12.3489H68.8398L77.2599 25.1429V12.3489H80.3355V30.5H77.2599L68.8398 17.706V30.5H65.7642ZM89.8717 30.8781C88.5104 30.8781 87.3213 30.5714 86.3045 29.958C85.2877 29.3445 84.4978 28.5 83.9348 27.4244C83.3802 26.3404 83.1029 25.0967 83.1029 23.6933C83.1029 22.2648 83.3886 21.0127 83.96 19.9371C84.5314 18.8614 85.3255 18.0211 86.3423 17.4161C87.3591 16.811 88.5356 16.5085 89.8717 16.5085C91.2415 16.5085 92.4347 16.8152 93.4515 17.4287C94.4683 18.0421 95.2582 18.8909 95.8213 19.9749C96.3843 21.0505 96.6658 22.29 96.6658 23.6933C96.6658 25.1051 96.3801 26.353 95.8086 27.437C95.2456 28.5126 94.4557 29.3572 93.4389 29.9706C92.4221 30.5756 91.2331 30.8781 89.8717 30.8781ZM89.8717 28.0294C91.0818 28.0294 91.9809 27.6261 92.5692 26.8194C93.1574 26.0126 93.4515 24.9706 93.4515 23.6933C93.4515 22.374 93.1532 21.3236 92.5566 20.5421C91.9599 19.7522 91.065 19.3572 89.8717 19.3572C89.0566 19.3572 88.3843 19.5421 87.8549 19.9119C87.3339 20.2732 86.9474 20.7816 86.6953 21.4371C86.4432 22.0841 86.3171 22.8362 86.3171 23.6933C86.3171 25.0127 86.6154 26.0673 87.2121 26.8572C87.8171 27.6387 88.7037 28.0294 89.8717 28.0294ZM115.792 30.5V22.2312C115.792 21.2984 115.561 20.5715 115.098 20.0505C114.636 19.5211 114.01 19.2564 113.22 19.2564C112.733 19.2564 112.296 19.3698 111.909 19.5967C111.523 19.8152 111.216 20.1429 110.989 20.5799C110.762 21.0085 110.649 21.5211 110.649 22.1177L109.3 21.3236C109.292 20.3824 109.502 19.5547 109.93 18.8404C110.367 18.1178 110.956 17.5547 111.695 17.1514C112.434 16.748 113.258 16.5463 114.166 16.5463C115.67 16.5463 116.821 17.0001 117.619 17.9077C118.426 18.8068 118.829 19.9917 118.829 21.4623V30.5H115.792ZM99.4178 30.5V16.8867H102.103V21.1093H102.481V30.5H99.4178ZM107.624 30.5V22.269C107.624 21.3194 107.393 20.5799 106.93 20.0505C106.468 19.5211 105.838 19.2564 105.04 19.2564C104.266 19.2564 103.645 19.5211 103.174 20.0505C102.712 20.5799 102.481 21.269 102.481 22.1177L101.119 21.2102C101.119 20.3278 101.338 19.5337 101.775 18.8278C102.212 18.122 102.8 17.5673 103.54 17.164C104.287 16.7522 105.124 16.5463 106.048 16.5463C107.065 16.5463 107.914 16.7648 108.594 17.2018C109.283 17.6304 109.796 18.2186 110.132 18.9665C110.477 19.706 110.649 20.5421 110.649 21.4749V30.5H107.624ZM125.924 30.8781C124.941 30.8781 124.109 30.6933 123.428 30.3235C122.747 29.9454 122.231 29.4454 121.878 28.8235C121.533 28.2017 121.361 27.5168 121.361 26.7689C121.361 26.1135 121.47 25.5253 121.689 25.0042C121.907 24.4748 122.243 24.0211 122.697 23.6429C123.151 23.2564 123.739 22.9412 124.462 22.6975C125.008 22.5211 125.646 22.3614 126.378 22.2186C127.117 22.0757 127.915 21.9455 128.773 21.8278C129.638 21.7018 130.541 21.5673 131.483 21.4244L130.399 22.0421C130.407 21.1009 130.197 20.4077 129.768 19.9623C129.34 19.5169 128.617 19.2942 127.6 19.2942C126.987 19.2942 126.394 19.4371 125.823 19.7228C125.252 20.0085 124.852 20.5001 124.625 21.1976L121.852 20.3278C122.189 19.1766 122.827 18.2522 123.768 17.5547C124.718 16.8573 125.995 16.5085 127.6 16.5085C128.81 16.5085 129.873 16.706 130.789 17.101C131.714 17.4959 132.399 18.143 132.844 19.0421C133.088 19.5211 133.235 20.0127 133.285 20.5169C133.335 21.0127 133.361 21.5547 133.361 22.1429V30.5H130.701V27.5504L131.142 28.0294C130.529 29.0126 129.81 29.7353 128.987 30.1975C128.172 30.6513 127.151 30.8781 125.924 30.8781ZM126.529 28.458C127.218 28.458 127.806 28.3362 128.294 28.0925C128.781 27.8488 129.167 27.5504 129.453 27.1975C129.747 26.8446 129.945 26.5126 130.046 26.2017C130.205 25.8152 130.294 25.374 130.31 24.8782C130.336 24.374 130.348 23.9664 130.348 23.6555L131.281 23.9328C130.365 24.0757 129.579 24.2017 128.924 24.311C128.268 24.4202 127.705 24.5253 127.235 24.6261C126.764 24.7185 126.348 24.8236 125.987 24.9412C125.634 25.0673 125.336 25.2143 125.092 25.3824C124.848 25.5505 124.659 25.7437 124.525 25.9622C124.399 26.1807 124.336 26.437 124.336 26.7311C124.336 27.0673 124.42 27.3656 124.588 27.6261C124.756 27.8782 124.999 28.0799 125.319 28.2311C125.646 28.3824 126.05 28.458 126.529 28.458ZM136.642 30.5V12.3489H142.516C142.659 12.3489 142.953 12.3531 143.399 12.3615C143.844 12.3699 144.273 12.3993 144.684 12.4497C146.146 12.6262 147.386 13.1346 148.403 13.9749C149.42 14.8153 150.193 15.8825 150.722 17.1766C151.251 18.4707 151.516 19.8866 151.516 21.4244C151.516 22.9623 151.251 24.3782 150.722 25.6723C150.193 26.9664 149.42 28.0336 148.403 28.874C147.386 29.7143 146.146 30.2227 144.684 30.3992C144.273 30.4496 143.844 30.479 143.399 30.4874C142.953 30.4958 142.659 30.5 142.516 30.5H136.642ZM140.121 27.2731H142.516C142.743 27.2731 143.05 27.2689 143.436 27.2605C143.823 27.2437 144.172 27.2059 144.483 27.1471C145.272 26.9874 145.915 26.6177 146.411 26.0379C146.915 25.458 147.285 24.7606 147.52 23.9454C147.764 23.1303 147.886 22.29 147.886 21.4244C147.886 20.5169 147.76 19.6556 147.508 18.8404C147.264 18.0253 146.89 17.3362 146.386 16.7732C145.882 16.2102 145.247 15.8531 144.483 15.7018C144.172 15.6346 143.823 15.5968 143.436 15.5884C143.05 15.58 142.743 15.5758 142.516 15.5758H140.121V27.2731ZM152.787 30.5L158.334 12.3489H163.451L168.997 30.5H165.468L160.527 14.4917H161.182L156.317 30.5H152.787ZM156.115 26.7185V23.5169H165.695V26.7185H156.115ZM178.554 30.8781C176.739 30.8781 175.172 30.4832 173.852 29.6933C172.542 28.9034 171.529 27.7983 170.815 26.3782C170.109 24.958 169.756 23.3068 169.756 21.4244C169.756 19.5421 170.109 17.8909 170.815 16.4707C171.529 15.0506 172.542 13.9455 173.852 13.1556C175.172 12.3657 176.739 11.9708 178.554 11.9708C180.369 11.9708 181.932 12.3657 183.243 13.1556C184.562 13.9455 185.575 15.0506 186.281 16.4707C186.995 17.8909 187.352 19.5421 187.352 21.4244C187.352 23.3068 186.995 24.958 186.281 26.3782C185.575 27.7983 184.562 28.9034 183.243 29.6933C181.932 30.4832 180.369 30.8781 178.554 30.8781ZM178.554 27.6513C179.705 27.6681 180.663 27.4202 181.428 26.9076C182.193 26.395 182.764 25.6681 183.142 24.7269C183.529 23.7858 183.722 22.6849 183.722 21.4244C183.722 20.164 183.529 19.0715 183.142 18.1472C182.764 17.2228 182.193 16.5043 181.428 15.9917C180.663 15.4791 179.705 15.2144 178.554 15.1976C177.403 15.1808 176.445 15.4287 175.68 15.9413C174.915 16.4539 174.34 17.1808 173.953 18.122C173.575 19.0631 173.386 20.164 173.386 21.4244C173.386 22.6849 173.575 23.7774 173.953 24.7017C174.34 25.6261 174.915 26.3446 175.68 26.8572C176.445 27.3698 177.403 27.6345 178.554 27.6513Z" fill="#ECECEC"/>
<path d="M67.0625 53.5H65.3798V41.4938L70.4091 41.4182C71.2915 41.4056 71.9532 41.6072 72.3944 42.0232C72.8482 42.4266 73.0751 43.0379 73.0751 43.8572V46.4664C73.0751 46.9833 72.9742 47.4307 72.7725 47.8089C72.5835 48.187 72.2873 48.4706 71.8839 48.6597C71.4931 48.8488 71.0016 48.9433 70.4091 48.9433H66.7033L67.0625 48.6219V53.5ZM67.0625 42.5526V47.79L66.7789 47.4874H71.1087C71.2726 47.4874 71.3545 47.4055 71.3545 47.2417V43.1198C71.3545 42.9686 71.2726 42.893 71.1087 42.893H66.7978L67.0625 42.5526ZM77.7803 44.103H78.7635V45.5022H76.4001C76.2741 45.5022 76.211 45.5652 76.211 45.6912L76.2299 53.5H74.6039V44.2354H76.022L76.211 45.4265L76.0409 45.8992C76.0409 45.2816 76.1795 44.8278 76.4568 44.5379C76.7341 44.248 77.1753 44.103 77.7803 44.103ZM84.3521 45.4644H81.308C81.1946 45.4644 81.1379 45.5274 81.1379 45.6534V52.0819C81.1379 52.208 81.1946 52.271 81.308 52.271H84.3521C84.4782 52.271 84.5412 52.208 84.5412 52.0819V45.6534C84.5412 45.5274 84.4782 45.4644 84.3521 45.4644ZM79.4929 51.458V46.2774C79.4929 45.4707 79.682 44.9097 80.0602 44.5946C80.4509 44.2669 81.0749 44.103 81.932 44.103H83.7282C84.5979 44.103 85.2219 44.2669 85.6 44.5946C85.9908 44.9097 86.1862 45.4707 86.1862 46.2774V51.458C86.1862 52.2521 85.9908 52.813 85.6 53.1408C85.2219 53.4685 84.5979 53.6324 83.7282 53.6324H81.932C81.0749 53.6324 80.4509 53.4685 80.0602 53.1408C79.682 52.813 79.4929 52.2521 79.4929 51.458ZM89.8408 42.4581H88.2336V40.9077H89.8408V42.4581ZM88.0445 55.8634C88.1706 55.8634 88.2336 55.8004 88.2336 55.6744V44.2354H89.8408V55.0504C89.8408 55.8445 89.6517 56.4054 89.2735 56.7332C88.8954 57.0609 88.2714 57.2248 87.4017 57.2248H86.4563V55.8634H88.0445ZM98.0485 53.5945H94.267C93.4099 53.5945 92.7859 53.437 92.3952 53.1219C92.017 52.7941 91.8279 52.2269 91.8279 51.4202V46.2017C91.8279 45.395 91.9918 44.8467 92.3195 44.5568C92.6473 44.2543 93.2208 44.103 94.0401 44.103H95.9876C96.8069 44.103 97.393 44.2543 97.746 44.5568C98.0989 44.8467 98.2754 45.395 98.2754 46.2017V49.8887H93.246V48.6975H96.6493V45.6156C96.6493 45.4896 96.5863 45.4265 96.4603 45.4265H93.6431C93.517 45.4265 93.454 45.4896 93.454 45.6156V52.063C93.454 52.1891 93.517 52.2521 93.6431 52.2521H98.0485V53.5945ZM105.227 53.6324H102.353C101.496 53.6324 100.872 53.4685 100.482 53.1408C100.103 52.813 99.9144 52.2521 99.9144 51.458V46.2774C99.9144 45.4707 100.103 44.9097 100.482 44.5946C100.872 44.2669 101.496 44.103 102.353 44.103H105.227V45.4644H101.73C101.616 45.4644 101.559 45.5274 101.559 45.6534V52.0819C101.559 52.208 101.616 52.271 101.73 52.271H105.227V53.6324ZM110.747 44.2354V45.5022H108.384L108.573 45.3131V51.9496C108.573 52.0756 108.636 52.1387 108.762 52.1387H110.747V53.5H109.386C108.529 53.5 107.905 53.3361 107.514 53.0084C107.136 52.6807 106.947 52.1198 106.947 51.3256V45.3131L107.136 45.5022H105.831V44.2354H107.136L106.947 44.4245V41.872H108.573V44.4245L108.384 44.2354H110.747ZM115.457 53.5567H111.6V52.2521H115.779C115.905 52.2521 115.968 52.1891 115.968 52.063V49.624C115.968 49.4979 115.905 49.4349 115.779 49.4349H113.737C112.917 49.4349 112.331 49.2837 111.978 48.9811C111.625 48.6786 111.449 48.1366 111.449 47.3551V46.2396C111.449 45.4328 111.632 44.8719 111.997 44.5568C112.363 44.2417 112.955 44.0904 113.774 44.103H117.121V45.4644H113.283C113.157 45.4644 113.094 45.5274 113.094 45.6534V47.9601C113.094 48.0862 113.157 48.1492 113.283 48.1492H115.306C116.125 48.1492 116.711 48.3005 117.064 48.603C117.417 48.8929 117.594 49.4286 117.594 50.2101V51.5904C117.594 52.3214 117.424 52.8319 117.083 53.1219C116.743 53.4118 116.201 53.5567 115.457 53.5567Z" fill="#ECECEC"/>
</svg>
