<svg width="190" height="61" viewBox="0 0 190 61" fill="none" xmlns="http://www.w3.org/2000/svg">
<path d="M20.4411 0.509549C19.1732 0.559351 16.5728 0.791765 15.3782 0.961925C14.1189 1.14039 13.3815 1.28979 10.7897 1.91648C7.69761 2.65938 6.19686 3.12005 5.06698 3.68034C3.74736 4.33607 2.94954 5.58945 2.94092 7.01713C2.94092 7.45291 3.00129 7.68947 3.15223 7.86793C3.33336 8.0713 3.44117 8.04639 4.47186 7.54421C5.95536 6.82207 7.18011 6.39875 10.0695 5.60605C10.9579 5.36534 12.1352 5.03747 12.6786 4.87976C14.2742 4.42323 14.5976 4.35683 16.6461 4.07461C18.4961 3.81729 19.7942 3.71354 22.3084 3.62638C24.9476 3.53508 27.1039 3.67619 30.1873 4.13686C32.7188 4.51454 33.4519 4.693 35.026 5.29893C36.199 5.75131 36.4663 5.80111 36.6302 5.6019C36.8027 5.39024 36.7294 5.04162 36.3499 4.26552C36.0265 3.60148 35.6944 3.13665 35.2157 2.68013C34.5775 2.07419 33.784 1.59691 32.9905 1.3562C31.9943 1.04908 29.5103 0.70461 27.2764 0.563502C26.664 0.521999 21.1397 0.480497 20.4411 0.509549Z" fill="#202020"/>
<path d="M40.2577 3.75515C40.1111 3.80495 39.9644 3.89211 39.8739 3.98756C39.7316 4.14112 39.7316 4.14527 39.7488 4.48144C39.7704 4.84666 39.7704 4.84251 40.4216 6.29095C40.8312 7.19985 41.0426 7.80164 41.3617 8.94711C41.4954 9.41608 41.6894 10.0884 41.7929 10.4412C43.8414 17.2683 44.1864 20.5014 43.4231 25.7348C42.8754 29.5116 42.3061 31.9685 41.2797 35.0314C40.3051 37.9407 39.5547 39.7876 38.5974 41.651C37.3381 44.0997 36.5705 45.2078 33.362 49.2252C30.7572 52.4915 30.0759 53.1182 28.9632 53.2717C28.45 53.3423 28.0705 53.2468 27.2684 52.8484C26.1299 52.2881 23.3828 50.3707 21.5845 48.8766C20.873 48.2873 19.0445 46.54 18.3027 45.739C15.0511 42.2321 12.7956 38.555 11.1655 34.11C10.2426 31.5908 9.79845 29.8851 9.49226 27.6938C9.32839 26.5275 9.25507 25.4692 9.20764 23.6182C9.15157 21.3605 9.09551 20.9081 8.83676 20.6134C8.07776 19.746 5.9172 21.8461 5.52476 23.834C5.36951 24.635 5.39107 25.353 5.63257 27.0007C5.85682 28.5197 6.11126 29.6195 6.6417 31.2962C6.82282 31.8689 7.07726 32.7239 7.20663 33.2053C8.00445 36.1312 9.45345 39.3559 11.1396 41.9623C12.7482 44.4483 14.87 47.3452 16.2155 48.8932C18.5873 51.6199 22.8783 54.8986 26.2679 56.5712C27.5703 57.2145 28.6829 57.3763 30.0155 57.1107C31.0419 56.9032 32.0855 56.3844 33.2499 55.488C34.1814 54.7741 35.6174 53.3174 36.6654 52.0266C38.5197 49.7399 40.6846 46.374 42.0948 43.5809C44.5874 38.638 46.5841 32.6824 47.3474 27.9137C47.6407 26.0918 47.6968 25.2576 47.6924 22.8089C47.6924 20.6217 47.6536 19.8332 47.4553 18.2022C47.3043 16.928 46.9076 14.6578 46.6186 13.4086C45.8941 10.271 44.7125 7.12514 43.5309 5.18698C42.9573 4.24903 42.0776 3.73439 40.9692 3.69289C40.5725 3.67629 40.4561 3.68874 40.2577 3.75515Z" fill="#202020"/>
<path d="M22.0807 5.94261C21.5071 5.97166 20.7007 6.04637 19.946 6.14597C15.8103 6.6855 15.0427 6.81001 13.6368 7.14618C12.4379 7.43255 10.3334 8.12149 8.25908 8.89759C7.89252 9.03869 6.94376 9.34996 6.15026 9.59483C3.34713 10.4581 2.44582 10.7901 1.90244 11.1636C1.30732 11.5745 0.729443 12.28 0.457755 12.9399C0.199005 13.5583 0.130005 13.9194 0.130005 14.6747C0.130005 15.2931 0.13863 15.3803 0.22488 15.5546C0.319755 15.7579 0.44913 15.8285 0.621631 15.7745C0.669068 15.7621 0.845881 15.6376 1.01407 15.5048C1.32457 15.2516 1.78601 14.9403 2.13532 14.7494C2.55363 14.5212 5.58532 13.2636 6.94376 12.7573C10.8725 11.2923 14.3138 10.3045 16.8841 9.9061C18.4711 9.65708 19.381 9.59068 22.016 9.52427C26.0439 9.42467 27.2514 9.55332 30.2529 10.4C31.8959 10.8607 32.1504 10.9105 32.4264 10.7984C32.5859 10.7361 32.5902 10.7237 32.5687 10.5701C32.5256 10.2589 31.7277 8.47011 31.4604 8.08829C31.2534 7.79362 30.9213 7.53631 30.4254 7.29144C29.9553 7.05903 29.7267 6.98017 28.7952 6.72701C27.5274 6.38254 26.2681 6.15012 24.9744 6.02147C24.349 5.95921 22.6758 5.91356 22.0807 5.94261Z" fill="#202020"/>
<path d="M35.2331 8.17911C34.9916 8.26211 34.7932 8.48207 34.7587 8.70619C34.6983 9.10046 34.8708 9.65245 35.5565 11.2295C37.109 14.8112 37.7128 17.127 37.8896 20.1941C37.9758 21.6799 37.8464 24.5643 37.6006 26.6062C37.2211 29.7936 36.4319 32.8108 35.1209 36.0812C33.7668 39.4512 32.6887 41.3354 30.4548 44.2115C29.9977 44.8009 29.4198 45.5604 29.174 45.9048C28.264 47.1748 27.85 47.6604 27.1514 48.2871C26.5735 48.8017 26.4355 49.0009 26.4355 49.3329C26.4355 49.5197 26.4614 49.6069 26.5649 49.7687C26.9358 50.3415 28.3589 51.0262 29.0791 50.9764C30.0839 50.9059 31.1966 49.6733 33.1372 46.49C33.659 45.6392 35.2805 42.871 35.9662 41.6716C36.5268 40.6921 37.1866 39.4263 37.4885 38.7581C39.4162 34.5166 40.5978 30.2958 41.0549 26.0252C41.2059 24.6431 41.2145 22.622 41.0981 19.1358C41.0032 16.4215 40.7358 14.3671 40.214 12.3501C39.9078 11.1673 39.6448 10.5821 39.1574 9.99692C38.1483 8.7809 36.1646 7.86369 35.2331 8.17911Z" fill="#202020"/>
<path d="M19.9024 11.4C17.302 11.5245 13.6105 12.2383 11.493 13.0268C10.7901 13.2883 9.69038 13.8278 9.13838 14.1806C8.46994 14.6122 7.77994 15.2846 7.31419 15.9611C6.92607 16.5255 5.92556 18.4139 5.766 18.887C5.57625 19.4431 5.59781 19.7378 5.82638 19.7378C5.98594 19.7378 6.21881 19.6133 6.98644 19.1153C8.05163 18.4263 8.84082 17.9822 9.87582 17.4925C11.8337 16.567 13.3345 16.0275 15.3096 15.546C17.9359 14.9028 20.3035 14.6205 23.0721 14.6205C25.2887 14.6205 26.9102 14.7741 28.9587 15.1767C30.7052 15.5211 32.0852 16.0026 33.9612 16.9198C34.8754 17.368 35.104 17.451 35.3153 17.3971C35.5482 17.339 35.5525 16.9488 35.3196 16.3761C35.1644 15.9901 34.47 14.716 34.207 14.33C33.6162 13.4668 32.6933 12.782 31.6324 12.4126C30.9467 12.176 28.5058 11.7818 26.6299 11.6075C25.4138 11.4913 24.5772 11.4456 22.8004 11.3958C21.1444 11.3501 20.9029 11.3501 19.9024 11.4Z" fill="#202020"/>
<path d="M20.5061 16.5008C17.0949 16.6917 14.6324 17.2769 13.2352 18.2273C12.8125 18.5137 12.3382 19.0283 12.1398 19.4185C11.8638 19.958 11.7862 20.3149 11.7775 21.0454C11.7732 21.7799 11.8379 22.0414 12.0967 22.3236L12.2605 22.4979L12.6444 22.5104C13.0972 22.527 13.5112 22.4647 15.344 22.0829C16.4997 21.8422 17.9531 21.5766 18.8889 21.4355C19.3417 21.3691 20.0921 21.3649 20.3206 21.4313C20.5923 21.5102 20.8554 21.7218 20.9847 21.9709C21.1486 22.2904 21.3599 23.3155 21.4764 24.3738C21.5195 24.7764 21.5411 25.4446 21.5411 26.6067C21.5411 28.7939 21.6101 29.8148 21.7869 30.3378C21.8688 30.5868 22.1664 30.8897 22.4726 31.0391C23.0806 31.3338 24.0725 31.4708 25.2498 31.421C26.7808 31.3546 27.2465 31.421 28.9154 31.9688C29.8081 32.2593 30.0928 32.471 30.2523 32.969C30.4033 33.438 30.3515 33.8281 30.1057 34.0854C29.8814 34.322 29.6831 34.3178 28.6093 34.0647C27.0481 33.6911 27.3457 33.7077 22.9426 33.7161C20.8079 33.7202 18.38 33.7451 17.5477 33.7742C15.8356 33.8281 15.6804 33.8115 16.1289 33.6206C17.6555 32.9815 18.3498 32.4253 18.8501 31.4625C19.1735 30.8358 19.2252 30.5702 19.2296 29.5326C19.2339 29.0429 19.2166 28.2211 19.1951 27.7065C19.1649 27.0176 19.1692 26.6399 19.2123 26.2747C19.2942 25.5193 19.277 25.0545 19.1519 24.5897C18.9837 23.9547 18.8199 23.7057 18.4447 23.5438C18.2765 23.4732 18.1687 23.4566 17.8107 23.4608C16.987 23.4691 15.7321 23.7098 14.9214 24.0169C14.4556 24.1912 12.9419 24.9798 12.5193 25.2662C12.0363 25.594 11.8552 26.0256 11.812 26.9179C11.7775 27.5861 11.8595 28.1008 12.1139 28.8561C12.2174 29.1715 12.4158 29.8107 12.5495 30.2796C12.847 31.3214 13.7958 34.0771 14.1796 35.0109C14.7187 36.339 15.0939 37.0487 15.883 38.2481C16.586 39.3147 17.9315 41.257 18.2247 41.6347C18.8199 42.3984 19.3977 42.8051 20.1395 42.9794C21.0279 43.1911 23.2445 43.2907 24.245 43.1703C25.9139 42.9628 27.3716 42.3693 28.6783 41.3567C29.1397 40.9997 29.9979 40.1738 30.3601 39.7422C30.7224 39.3064 31.2614 38.5179 31.6668 37.8331C31.8566 37.5177 32.2663 36.6586 32.7277 35.6335C33.1417 34.708 33.6721 33.5168 33.9136 32.9898C34.8796 30.8399 35.4101 29.2379 35.4575 28.3C35.4877 27.7646 35.4403 27.4658 35.2505 26.9927C34.9141 26.1502 34.0085 25.2163 33.0554 24.7266C32.1671 24.2659 30.9811 23.9713 29.4459 23.826C28.0573 23.6974 26.6384 23.4898 26.2201 23.3612C25.6293 23.1827 25.2196 22.8507 24.9781 22.361C24.7409 21.8713 24.8272 21.2985 25.2024 20.9416C25.4396 20.7175 25.6379 20.6511 26.0735 20.6511C26.4228 20.6552 26.7161 20.7216 28.1823 21.1408C28.6696 21.2778 29.8728 21.6098 30.8561 21.8754C31.8393 22.1452 33.0598 22.4938 33.5643 22.6515C34.5433 22.9545 34.8667 23.0126 35.1513 22.9379C35.6257 22.8134 35.7723 22.4647 35.837 21.3151C35.8672 20.8005 35.8111 20.1032 35.7076 19.7131C35.5222 19.02 35.0435 18.4016 34.457 18.1111C34.0775 17.9244 33.1589 17.6173 32.4991 17.4554C31.5245 17.2188 30.8259 17.1234 28.6567 16.9366C27.9796 16.8785 27.0007 16.7748 26.4789 16.7083C25.9571 16.6419 25.2972 16.5672 25.0126 16.5423C24.3226 16.4801 21.347 16.4552 20.5061 16.5008ZM25.1722 37.3724C25.6854 37.5011 25.97 37.6505 26.2891 37.9535C26.6859 38.3394 26.8239 38.6216 26.8239 39.0574C26.8239 39.3396 26.8023 39.4226 26.7031 39.6094C26.5436 39.8999 26.2848 40.1406 26.0002 40.2693C25.6638 40.4187 25.4697 40.4062 25.0342 40.207C24.5598 39.9954 23.9647 39.8501 23.6757 39.8792C23.5593 39.8916 23.3437 39.9414 23.2014 39.9912C22.1189 40.3689 22.0844 40.3813 21.7567 40.3813C21.4893 40.3855 21.3901 40.3647 21.1874 40.2693C20.588 39.9871 20.2646 39.2774 20.4371 38.6216C20.5751 38.0946 20.8338 37.8248 21.4332 37.5882C21.9378 37.3849 22.2914 37.3268 23.2661 37.2936C24.3744 37.2521 24.7539 37.2687 25.1722 37.3724Z" fill="#202020"/>
<path d="M2.60907 17.3057C2.36757 17.368 1.88888 17.6129 1.57406 17.8411C0.836626 18.3682 0.388126 18.9575 0.1035 19.7585L0 20.0491L0.00431251 22.4354C0.00862501 28.2001 0.426938 31.3087 1.66031 34.8447C2.47969 37.1937 4.24782 41.0036 5.5847 43.3112C7.36576 46.3782 9.58239 49.4369 11.8335 51.9437C12.8987 53.1307 15.3525 55.4008 17.815 57.4677C19.0009 58.4679 19.941 59.107 20.8294 59.5262C22.3129 60.2193 24.2061 60.5803 25.8794 60.4849C26.6642 60.4434 27.1817 60.2566 27.2766 59.9786C27.4017 59.6092 27.2205 59.4473 24.6028 57.6503C20.5577 54.8696 18.919 53.6702 17.6597 52.587C15.1628 50.4288 11.605 46.1748 9.60395 42.9584C8.59483 41.3315 7.9997 40.0615 6.57657 36.5048C5.24401 33.1763 5.03701 32.5039 4.26938 29.0551C3.41982 25.2369 3.30769 23.6017 3.64838 20.1113C3.75619 19.0364 3.77344 18.0569 3.69582 17.7996C3.55351 17.3389 3.16107 17.1605 2.60907 17.3057Z" fill="#202020"/>
<path d="M77.2607 22.4V7.68H80.5247V28H77.8687L68.2367 13.376L68.8767 13.248V28H65.6447V7.68H68.2687L77.8687 22.272L77.2607 22.4ZM91.818 15.104H87.882C87.626 15.104 87.498 15.232 87.498 15.488V24.832C87.498 25.088 87.626 25.216 87.882 25.216H91.818C92.074 25.216 92.202 25.088 92.202 24.832V15.488C92.202 15.232 92.074 15.104 91.818 15.104ZM83.85 24.032V16.288C83.85 14.752 84.2233 13.664 84.97 13.024C85.7167 12.3627 86.9327 12.032 88.618 12.032H91.082C92.7673 12.032 93.9833 12.3627 94.73 13.024C95.4767 13.664 95.85 14.752 95.85 16.288V24.032C95.85 25.5467 95.4767 26.6347 94.73 27.296C93.9833 27.9573 92.7673 28.288 91.082 28.288H88.618C86.9327 28.288 85.7167 27.9573 84.97 27.296C84.2233 26.6347 83.85 25.5467 83.85 24.032ZM105.192 12.032H106.344C107.709 12.032 108.691 12.3093 109.288 12.864C109.907 13.4187 110.216 14.368 110.216 15.712V28H106.6V15.36C106.6 15.104 106.472 14.976 106.216 14.976H102.696C102.44 14.976 102.312 15.104 102.312 15.36L102.376 28H98.76L98.696 12.32H101.96L102.312 14.976L102.088 15.392C102.088 14.304 102.333 13.472 102.824 12.896C103.336 12.32 104.125 12.032 105.192 12.032ZM113.096 12.032H114.184C115.549 12.032 116.531 12.3093 117.128 12.864C117.747 13.4187 118.056 14.368 118.056 15.712V28H114.44V15.36C114.44 15.104 114.312 14.976 114.056 14.976H110.6C110.344 14.976 110.216 15.104 110.216 15.36L110.12 15.808L109.992 15.392C109.992 14.304 110.237 13.472 110.728 12.896C111.219 12.32 112.008 12.032 113.096 12.032ZM125.302 28.288H124.086C122.763 28.288 121.782 28.0107 121.142 27.456C120.523 26.88 120.214 25.9307 120.214 24.608V22.56C120.214 21.1093 120.544 20.1067 121.206 19.552C121.867 18.976 122.976 18.688 124.534 18.688H128.566V21.28H124.182C123.926 21.28 123.798 21.408 123.798 21.664V24.96C123.798 25.216 123.926 25.344 124.182 25.344H128.15V15.712C128.15 15.456 128.022 15.328 127.766 15.328H121.238V12.288H127.382C128.96 12.2667 130.091 12.5653 130.774 13.184C131.456 13.8027 131.798 14.8693 131.798 16.384V28H128.534L128.15 25.344L128.342 24.928C128.342 25.9947 128.107 26.8267 127.638 27.424C127.168 28 126.39 28.288 125.302 28.288ZM145.033 11.616H140.009V24.064H145.033C145.331 24.064 145.481 23.9147 145.481 23.616V12.064C145.481 11.7653 145.331 11.616 145.033 11.616ZM135.273 28V7.68L144.361 7.52C146.366 7.47733 147.849 7.89333 148.809 8.768C149.79 9.62133 150.281 10.9653 150.281 12.8V22.88C150.281 24.7147 149.79 26.0587 148.809 26.912C147.849 27.7653 146.366 28.1813 144.361 28.16L135.273 28ZM169.861 28H165.156L164.196 23.168L164.58 23.488H157.38L157.764 23.168L156.676 28H152.26L156.42 11.36C156.676 10.3573 156.964 9.57867 157.284 9.024C157.604 8.448 158.052 8.04267 158.628 7.808C159.204 7.57333 159.983 7.47733 160.964 7.52L165.572 7.68L169.861 28ZM160.292 12.192L158.564 19.744L158.308 19.424H163.78L163.524 19.744L161.956 11.744H160.74C160.591 11.744 160.484 11.776 160.42 11.84C160.378 11.904 160.335 12.0213 160.292 12.192ZM182.197 11.616H177.013C176.715 11.616 176.565 11.7653 176.565 12.064V23.616C176.565 23.9147 176.715 24.064 177.013 24.064H182.197C182.496 24.064 182.645 23.9147 182.645 23.616V12.064C182.645 11.7653 182.496 11.616 182.197 11.616ZM171.765 23.2V12.48C171.765 10.7947 172.245 9.52533 173.205 8.672C174.165 7.79733 175.605 7.36 177.525 7.36H181.685C183.605 7.36 185.045 7.79733 186.005 8.672C186.965 9.52533 187.445 10.7947 187.445 12.48V23.2C187.445 24.8853 186.965 26.1653 186.005 27.04C185.045 27.8933 183.605 28.32 181.685 28.32H177.525C175.605 28.32 174.165 27.8933 173.205 27.04C172.245 26.1653 171.765 24.8853 171.765 23.2Z" fill="#202020"/>
<path d="M67.5807 56H65.4447V40.76L71.8287 40.664C72.9487 40.648 73.7887 40.904 74.3487 41.432C74.9247 41.944 75.2127 42.72 75.2127 43.76V47.072C75.2127 47.728 75.0847 48.296 74.8287 48.776C74.5887 49.256 74.2127 49.616 73.7007 49.856C73.2047 50.096 72.5807 50.216 71.8287 50.216H67.1247L67.5807 49.808V56ZM67.5807 42.104V48.752L67.2207 48.368H72.7167C72.9247 48.368 73.0287 48.264 73.0287 48.056V42.824C73.0287 42.632 72.9247 42.536 72.7167 42.536H67.2447L67.5807 42.104ZM81.1854 44.072H82.4334V45.848H79.4334C79.2734 45.848 79.1934 45.928 79.1934 46.088L79.2174 56H77.1534V44.24H78.9534L79.1934 45.752L78.9774 46.352C78.9774 45.568 79.1534 44.992 79.5054 44.624C79.8574 44.256 80.4174 44.072 81.1854 44.072ZM89.5272 45.8H85.6632C85.5192 45.8 85.4472 45.88 85.4472 46.04V54.2C85.4472 54.36 85.5192 54.44 85.6632 54.44H89.5272C89.6872 54.44 89.7672 54.36 89.7672 54.2V46.04C89.7672 45.88 89.6872 45.8 89.5272 45.8ZM83.3592 53.408V46.832C83.3592 45.808 83.5992 45.096 84.0792 44.696C84.5752 44.28 85.3672 44.072 86.4552 44.072H88.7352C89.8392 44.072 90.6312 44.28 91.1112 44.696C91.6072 45.096 91.8552 45.808 91.8552 46.832V53.408C91.8552 54.416 91.6072 55.128 91.1112 55.544C90.6312 55.96 89.8392 56.168 88.7352 56.168H86.4552C85.3672 56.168 84.5752 55.96 84.0792 55.544C83.5992 55.128 83.3592 54.416 83.3592 53.408ZM96.4942 41.984H94.4542V40.016H96.4942V41.984ZM94.2142 59C94.3742 59 94.4542 58.92 94.4542 58.76V44.24H96.4942V57.968C96.4942 58.976 96.2542 59.688 95.7742 60.104C95.2942 60.52 94.5022 60.728 93.3982 60.728H92.1982V59H94.2142ZM106.913 56.12H102.113C101.025 56.12 100.233 55.92 99.7366 55.52C99.2566 55.104 99.0166 54.384 99.0166 53.36V46.736C99.0166 45.712 99.2246 45.016 99.6406 44.648C100.057 44.264 100.785 44.072 101.825 44.072H104.297C105.337 44.072 106.081 44.264 106.529 44.648C106.977 45.016 107.201 45.712 107.201 46.736V51.416H100.817V49.904H105.137V45.992C105.137 45.832 105.057 45.752 104.897 45.752H101.321C101.161 45.752 101.081 45.832 101.081 45.992V54.176C101.081 54.336 101.161 54.416 101.321 54.416H106.913V56.12ZM116.025 56.168H112.377C111.289 56.168 110.497 55.96 110.001 55.544C109.521 55.128 109.281 54.416 109.281 53.408V46.832C109.281 45.808 109.521 45.096 110.001 44.696C110.497 44.28 111.289 44.072 112.377 44.072H116.025V45.8H111.585C111.441 45.8 111.369 45.88 111.369 46.04V54.2C111.369 54.36 111.441 54.44 111.585 54.44H116.025V56.168ZM123.032 44.24V45.848H120.032L120.272 45.608V54.032C120.272 54.192 120.352 54.272 120.512 54.272H123.032V56H121.304C120.216 56 119.424 55.792 118.928 55.376C118.448 54.96 118.208 54.248 118.208 53.24V45.608L118.448 45.848H116.792V44.24H118.448L118.208 44.48V41.24H120.272V44.48L120.032 44.24H123.032ZM129.01 56.072H124.114V54.416H129.418C129.578 54.416 129.658 54.336 129.658 54.176V51.08C129.658 50.92 129.578 50.84 129.418 50.84H126.826C125.786 50.84 125.042 50.648 124.594 50.264C124.146 49.88 123.922 49.192 123.922 48.2V46.784C123.922 45.76 124.154 45.048 124.618 44.648C125.082 44.248 125.834 44.056 126.874 44.072H131.122V45.8H126.25C126.09 45.8 126.01 45.88 126.01 46.04V48.968C126.01 49.128 126.09 49.208 126.25 49.208H128.818C129.858 49.208 130.602 49.4 131.05 49.784C131.498 50.152 131.722 50.832 131.722 51.824V53.576C131.722 54.504 131.506 55.152 131.074 55.52C130.642 55.888 129.954 56.072 129.01 56.072Z" fill="#202020"/>
</svg>
