<svg width="92" height="92" viewBox="0 0 92 92" fill="none" xmlns="http://www.w3.org/2000/svg">
<path d="M16.8334 75.1666V61.2083C16.8334 59.8194 17.1292 58.5347 17.7209 57.3541C18.3098 56.1736 19.1598 55.2013 20.2709 54.4375C23.8126 51.7986 27.8931 49.7319 32.5126 48.2375C37.1292 46.7458 41.6251 46 46.0001 46C50.3751 46 54.8723 46.7458 59.4917 48.2375C64.1084 49.7319 68.1876 51.7986 71.7292 54.4375C72.8404 55.2013 73.6917 56.1736 74.2834 57.3541C74.8723 58.5347 75.1667 59.8194 75.1667 61.2083V75.1666H16.8334ZM25.1667 66.8333H66.8334V61.2083C63.9167 59.0555 60.6181 57.3722 56.9376 56.1583C53.257 54.9416 49.6112 54.3333 46.0001 54.3333C42.389 54.3333 38.7431 54.9236 35.0626 56.1041C31.382 57.2847 28.0834 58.9513 25.1667 61.1041V66.8333ZM46.0001 41.8333C41.4167 41.8333 37.4931 40.2013 34.2292 36.9375C30.9654 33.6736 29.3334 29.75 29.3334 25.1666C29.3334 20.5833 30.9654 16.6597 34.2292 13.3958C37.4931 10.1319 41.4167 8.49996 46.0001 8.49996C50.5834 8.49996 54.507 10.1319 57.7709 13.3958C61.0348 16.6597 62.6667 20.5833 62.6667 25.1666C62.6667 29.75 61.0348 33.6736 57.7709 36.9375C54.507 40.2013 50.5834 41.8333 46.0001 41.8333ZM46.0001 33.5C48.2917 33.5 50.2542 32.6833 51.8876 31.05C53.5181 29.4194 54.3334 27.4583 54.3334 25.1666C54.3334 22.875 53.5181 20.9138 51.8876 19.2833C50.2542 17.65 48.2917 16.8333 46.0001 16.8333C43.7084 16.8333 41.7473 17.65 40.1167 19.2833C38.4834 20.9138 37.6667 22.875 37.6667 25.1666C37.6667 27.4583 38.4834 29.4194 40.1167 31.05C41.7473 32.6833 43.7084 33.5 46.0001 33.5ZM0.166748 21L0.166748 0.166626H21.0001V8.49996H8.50008V21H0.166748ZM21.0001 91.8333H0.166748L0.166748 71H8.50008V83.5H21.0001V91.8333ZM71.0001 91.8333V83.5H83.5001V71H91.8334V91.8333H71.0001ZM83.5001 21V8.49996H71.0001V0.166626H91.8334V21H83.5001Z" fill="#202020"/>
</svg>
