<svg width="92" height="92" viewBox="0 0 92 92" fill="none" xmlns="http://www.w3.org/2000/svg">
<path d="M16.8337 75.1666V61.2083C16.8337 59.8194 17.1295 58.5347 17.7212 57.3541C18.31 56.1736 19.16 55.2013 20.2712 54.4375C23.8128 51.7986 27.8934 49.7319 32.5128 48.2375C37.1295 46.7458 41.6253 46 46.0003 46C50.3753 46 54.8725 46.7458 59.492 48.2375C64.1087 49.7319 68.1878 51.7986 71.7295 54.4375C72.8406 55.2013 73.692 56.1736 74.2837 57.3541C74.8725 58.5347 75.167 59.8194 75.167 61.2083V75.1666H16.8337ZM25.167 66.8333H66.8337V61.2083C63.917 59.0555 60.6184 57.3722 56.9378 56.1583C53.2573 54.9416 49.6114 54.3333 46.0003 54.3333C42.3892 54.3333 38.7434 54.9236 35.0628 56.1041C31.3823 57.2847 28.0837 58.9513 25.167 61.1041V66.8333ZM46.0003 41.8333C41.417 41.8333 37.4934 40.2013 34.2295 36.9375C30.9656 33.6736 29.3337 29.75 29.3337 25.1666C29.3337 20.5833 30.9656 16.6597 34.2295 13.3958C37.4934 10.1319 41.417 8.49996 46.0003 8.49996C50.5837 8.49996 54.5073 10.1319 57.7712 13.3958C61.035 16.6597 62.667 20.5833 62.667 25.1666C62.667 29.75 61.035 33.6736 57.7712 36.9375C54.5073 40.2013 50.5837 41.8333 46.0003 41.8333ZM46.0003 33.5C48.292 33.5 50.2545 32.6833 51.8878 31.05C53.5184 29.4194 54.3337 27.4583 54.3337 25.1666C54.3337 22.875 53.5184 20.9138 51.8878 19.2833C50.2545 17.65 48.292 16.8333 46.0003 16.8333C43.7087 16.8333 41.7475 17.65 40.117 19.2833C38.4837 20.9138 37.667 22.875 37.667 25.1666C37.667 27.4583 38.4837 29.4194 40.117 31.05C41.7475 32.6833 43.7087 33.5 46.0003 33.5ZM0.166992 21L0.166992 0.166626H21.0003V8.49996H8.50033V21H0.166992ZM21.0003 91.8333H0.166992L0.166992 71H8.50033V83.5H21.0003V91.8333ZM71.0003 91.8333V83.5H83.5003V71H91.8337V91.8333H71.0003ZM83.5003 21V8.49996H71.0003V0.166626H91.8337V21H83.5003Z" fill="#ECECEC"/>
</svg>
