<svg width="15" height="15" viewBox="0 0 15 15" fill="none" xmlns="http://www.w3.org/2000/svg">
<path fill-rule="evenodd" clip-rule="evenodd" d="M7.84131 0.258118C3.9754 0.258118 0.841309 3.39221 0.841309 7.25812C0.841309 11.124 3.9754 14.2581 7.84131 14.2581C11.7072 14.2581 14.8413 11.124 14.8413 7.25812C14.8413 3.39221 11.7072 0.258118 7.84131 0.258118ZM10.2003 5.79894C10.3162 5.67892 10.3804 5.51817 10.3789 5.35132C10.3775 5.18446 10.3105 5.02486 10.1926 4.90687C10.0746 4.78888 9.91496 4.72196 9.74811 4.72051C9.58126 4.71906 9.42051 4.7832 9.30049 4.89912L7.84131 6.3583L6.38213 4.89912C6.32342 4.83834 6.2532 4.78986 6.17557 4.75651C6.09793 4.72316 6.01442 4.7056 5.92993 4.70487C5.84543 4.70413 5.76164 4.72023 5.68343 4.75223C5.60522 4.78423 5.53417 4.83148 5.47442 4.89123C5.41467 4.95098 5.36742 5.02203 5.33542 5.10024C5.30343 5.17844 5.28732 5.26224 5.28806 5.34674C5.28879 5.43123 5.30635 5.51474 5.3397 5.59237C5.37305 5.67001 5.42153 5.74023 5.48231 5.79894L6.94149 7.25812L5.48231 8.7173C5.42153 8.776 5.37305 8.84622 5.3397 8.92386C5.30635 9.0015 5.28879 9.085 5.28806 9.1695C5.28732 9.25399 5.30343 9.33779 5.33542 9.416C5.36742 9.4942 5.41467 9.56525 5.47442 9.625C5.53417 9.68475 5.60522 9.73201 5.68343 9.764C5.76164 9.796 5.84543 9.8121 5.92993 9.81137C6.01442 9.81063 6.09793 9.79308 6.17557 9.75973C6.2532 9.72638 6.32342 9.6779 6.38213 9.61712L7.84131 8.15794L9.30049 9.61712C9.42051 9.73304 9.58126 9.79718 9.74811 9.79573C9.91496 9.79428 10.0746 9.72735 10.1926 9.60937C10.3105 9.49138 10.3775 9.33177 10.3789 9.16492C10.3804 8.99807 10.3162 8.83732 10.2003 8.7173L8.74113 7.25812L10.2003 5.79894Z" fill="#E05641" fill-opacity="0.8"/>
</svg>
