<svg width="18" height="17" viewBox="0 0 18 17" fill="none" xmlns="http://www.w3.org/2000/svg">
<path d="M17.3844 18.3089L11.0844 12.0089C10.5844 12.4089 10.0094 12.7256 9.35942 12.9589C8.70942 13.1923 8.01776 13.3089 7.28442 13.3089C5.46776 13.3089 3.93042 12.6799 2.67242 11.4219C1.41376 10.1633 0.784424 8.6256 0.784424 6.80893C0.784424 4.99226 1.41376 3.4546 2.67242 2.19593C3.93042 0.937929 5.46776 0.308929 7.28442 0.308929C9.10109 0.308929 10.6388 0.937929 11.8974 2.19593C13.1554 3.4546 13.7844 4.99226 13.7844 6.80893C13.7844 7.54226 13.6678 8.23393 13.4344 8.88393C13.2011 9.53393 12.8844 10.1089 12.4844 10.6089L18.7844 16.9089L17.3844 18.3089ZM7.28442 11.3089C8.53442 11.3089 9.59709 10.8716 10.4724 9.99693C11.3471 9.1216 11.7844 8.05893 11.7844 6.80893C11.7844 5.55893 11.3471 4.49626 10.4724 3.62093C9.59709 2.74626 8.53442 2.30893 7.28442 2.30893C6.03442 2.30893 4.97176 2.74626 4.09642 3.62093C3.22176 4.49626 2.78442 5.55893 2.78442 6.80893C2.78442 8.05893 3.22176 9.1216 4.09642 9.99693C4.97176 10.8716 6.03442 11.3089 7.28442 11.3089Z" fill="#202020"/>
</svg>
