<svg width="38" height="37" viewBox="0 0 38 37" fill="none" xmlns="http://www.w3.org/2000/svg">
<path d="M33.7384 0H4.83032C2.654 0 0.888306 1.76569 0.888306 3.94201V32.8501C0.888306 35.0264 2.654 36.7921 4.83032 36.7921H33.7384C35.9147 36.7921 37.6804 35.0264 37.6804 32.8501V3.94201C37.6804 1.76569 35.9147 0 33.7384 0ZM29.7225 13.0415C29.7389 13.2714 29.7389 13.5096 29.7389 13.7395C29.7389 20.8598 24.3186 29.0641 14.4143 29.0641C11.3593 29.0641 8.52595 28.1772 6.14432 26.6496C6.57958 26.6989 6.99842 26.7153 7.4419 26.7153C9.96314 26.7153 12.2791 25.8612 14.1269 24.4158C11.7617 24.3665 9.77425 22.8144 9.09261 20.6791C9.92208 20.8023 10.6694 20.8023 11.5235 20.5806C9.05976 20.0796 7.21195 17.9115 7.21195 15.2917V15.226C7.92644 15.6284 8.76411 15.8748 9.64285 15.9077C8.90408 15.4162 8.29845 14.7496 7.88001 13.9672C7.46157 13.1847 7.24334 12.3109 7.2448 11.4236C7.2448 10.4217 7.5076 9.50189 7.97571 8.70527C10.6284 11.9739 14.6114 14.1091 19.079 14.3391C18.3153 10.6845 21.05 7.71977 24.3351 7.71977C25.8872 7.71977 27.2833 8.36856 28.2689 9.41976C29.4843 9.18981 30.6505 8.73812 31.6853 8.12218C31.2828 9.37049 30.437 10.4217 29.3201 11.0869C30.4041 10.9719 31.4553 10.6681 32.4244 10.2492C31.6935 11.3251 30.7737 12.2777 29.7225 13.0415Z" fill="#9E9E9E"/>
</svg>
