<svg width="28" height="23" viewBox="0 0 28 23" fill="none" xmlns="http://www.w3.org/2000/svg">
<path d="M27.9467 2.99999C26.92 3.46666 25.8134 3.77333 24.6667 3.91999C25.84 3.21333 26.7467 2.09333 27.1734 0.746661C26.0667 1.41333 24.84 1.87999 23.5467 2.14666C22.4934 0.999995 21.0134 0.333328 19.3334 0.333328C16.2 0.333328 13.64 2.89333 13.64 6.05333C13.64 6.50666 13.6933 6.94666 13.7867 7.35999C9.04002 7.11999 4.81335 4.83999 2.00001 1.38666C1.50668 2.22666 1.22668 3.21333 1.22668 4.25333C1.22668 6.23999 2.22668 7.99999 3.77335 8.99999C2.82668 8.99999 1.94668 8.73333 1.17335 8.33333V8.37333C1.17335 11.1467 3.14668 13.4667 5.76001 13.9867C4.92098 14.2163 4.04014 14.2482 3.18668 14.08C3.54882 15.2166 4.25806 16.2112 5.2147 16.9239C6.17134 17.6366 7.32728 18.0316 8.52001 18.0533C6.49819 19.6539 3.99201 20.5191 1.41335 20.5067C0.960012 20.5067 0.506678 20.48 0.0533447 20.4267C2.58668 22.0533 5.60001 23 8.82668 23C19.3334 23 25.1067 14.28 25.1067 6.71999C25.1067 6.46666 25.1067 6.22666 25.0934 5.97333C26.2134 5.17333 27.1734 4.15999 27.9467 2.99999Z" fill="#ECECEC"/>
</svg>
